<svg width="1440" height="162" viewBox="0 0 1440 162" fill="none" xmlns="http://www.w3.org/2000/svg">
<g filter="url(#filter0_d)">
<path d="M1363 15C1363 9.47715 1367.48 5 1373 5H1427.08C1436.17 5 1443.84 11.7755 1444.95 20.7959L1449.3 56.041C1451.42 73.2816 1451.42 90.7184 1449.3 107.959L1444.95 143.204C1443.84 152.224 1436.17 159 1427.08 159H1373C1367.48 159 1363 154.523 1363 149V82V15Z" fill="#4E4E4E"/>
</g>
<g filter="url(#filter1_d)">
<path d="M1310 15C1310 9.47715 1314.48 5 1320 5H1374.08C1383.17 5 1390.84 11.7755 1391.95 20.7959L1396.3 56.041C1398.42 73.2816 1398.42 90.7184 1396.3 107.959L1391.95 143.204C1390.84 152.224 1383.17 159 1374.08 159H1320C1314.48 159 1310 154.523 1310 149V82V15Z" fill="#4E4E4E"/>
</g>
<g filter="url(#filter2_d)">
<path d="M1253 15C1253 9.47715 1257.48 5 1263 5H1317.08C1326.17 5 1333.84 11.7755 1334.95 20.7959L1339.3 56.041C1341.42 73.2816 1341.42 90.7184 1339.3 107.959L1334.95 143.204C1333.84 152.224 1326.17 159 1317.08 159H1263C1257.48 159 1253 154.523 1253 149V82V15Z" fill="#4E4E4E"/>
</g>
<g filter="url(#filter3_d)">
<path d="M1262 15C1262 9.47715 1266.48 5 1272 5H1326.08C1335.17 5 1342.84 11.7755 1343.95 20.7959L1348.3 56.041C1350.42 73.2816 1350.42 90.7184 1348.3 107.959L1343.95 143.204C1342.84 152.224 1335.17 159 1326.08 159H1272C1266.48 159 1262 154.523 1262 149V82V15Z" fill="#4E4E4E"/>
</g>
<g filter="url(#filter4_d)">
<path d="M1209 15C1209 9.47715 1213.48 5 1219 5H1273.08C1282.17 5 1289.84 11.7755 1290.95 20.7959L1295.3 56.041C1297.42 73.2816 1297.42 90.7184 1295.3 107.959L1290.95 143.204C1289.84 152.224 1282.17 159 1273.08 159H1219C1213.48 159 1209 154.523 1209 149V82V15Z" fill="#4E4E4E"/>
</g>
<g filter="url(#filter5_d)">
<path d="M1152 15C1152 9.47715 1156.48 5 1162 5H1216.08C1225.17 5 1232.84 11.7755 1233.95 20.7959L1238.3 56.041C1240.42 73.2816 1240.42 90.7184 1238.3 107.959L1233.95 143.204C1232.84 152.224 1225.17 159 1216.08 159H1162C1156.48 159 1152 154.523 1152 149V82V15Z" fill="#4E4E4E"/>
</g>
<g filter="url(#filter6_d)">
<path d="M1097 15C1097 9.47715 1101.48 5 1107 5H1161.08C1170.17 5 1177.84 11.7755 1178.95 20.7959L1183.3 56.041C1185.42 73.2816 1185.42 90.7184 1183.3 107.959L1178.95 143.204C1177.84 152.224 1170.17 159 1161.08 159H1107C1101.48 159 1097 154.523 1097 149V82V15Z" fill="#4E4E4E"/>
</g>
<g filter="url(#filter7_d)">
<path d="M1044 15C1044 9.47715 1048.48 5 1054 5H1108.08C1117.17 5 1124.84 11.7755 1125.95 20.7959L1130.3 56.041C1132.42 73.2816 1132.42 90.7184 1130.3 107.959L1125.95 143.204C1124.84 152.224 1117.17 159 1108.08 159H1054C1048.48 159 1044 154.523 1044 149V82V15Z" fill="#4E4E4E"/>
</g>
<g filter="url(#filter8_d)">
<path d="M987 15C987 9.47715 991.477 5 997 5H1051.08C1060.17 5 1067.84 11.7755 1068.95 20.7959L1073.3 56.041C1075.42 73.2816 1075.42 90.7184 1073.3 107.959L1068.95 143.204C1067.84 152.224 1060.17 159 1051.08 159H997C991.477 159 987 154.523 987 149V82V15Z" fill="#4E4E4E"/>
</g>
<g filter="url(#filter9_d)">
<path d="M932 15C932 9.47715 936.477 5 942 5H996.084C1005.17 5 1012.84 11.7755 1013.95 20.7959L1018.3 56.041C1020.42 73.2816 1020.42 90.7184 1018.3 107.959L1013.95 143.204C1012.84 152.224 1005.17 159 996.084 159H942C936.477 159 932 154.523 932 149V82V15Z" fill="#4E4E4E"/>
</g>
<g filter="url(#filter10_d)">
<path d="M879 15C879 9.47715 883.477 5 889 5H943.084C952.173 5 959.836 11.7755 960.949 20.7959L965.297 56.041C967.424 73.2816 967.424 90.7184 965.297 107.959L960.949 143.204C959.836 152.224 952.173 159 943.084 159H889C883.477 159 879 154.523 879 149V82V15Z" fill="#4E4E4E"/>
</g>
<g filter="url(#filter11_d)">
<path d="M822 15C822 9.47715 826.477 5 832 5H886.084C895.173 5 902.836 11.7755 903.949 20.7959L908.297 56.041C910.424 73.2816 910.424 90.7184 908.297 107.959L903.949 143.204C902.836 152.224 895.173 159 886.084 159H832C826.477 159 822 154.523 822 149V82V15Z" fill="#4E4E4E"/>
</g>
<g filter="url(#filter12_d)">
<path d="M767 15C767 9.47715 771.477 5 777 5H831.084C840.173 5 847.836 11.7755 848.949 20.7959L853.297 56.041C855.424 73.2816 855.424 90.7184 853.297 107.959L848.949 143.204C847.836 152.224 840.173 159 831.084 159H777C771.477 159 767 154.523 767 149V82V15Z" fill="#4E4E4E"/>
</g>
<g filter="url(#filter13_d)">
<path d="M714 15C714 9.47715 718.477 5 724 5H778.084C787.173 5 794.836 11.7755 795.949 20.7959L800.297 56.041C802.424 73.2816 802.424 90.7184 800.297 107.959L795.949 143.204C794.836 152.224 787.173 159 778.084 159H724C718.477 159 714 154.523 714 149V82V15Z" fill="#4E4E4E"/>
</g>
<g filter="url(#filter14_d)">
<path d="M657 15C657 9.47715 661.477 5 667 5H721.084C730.173 5 737.836 11.7755 738.949 20.7959L743.297 56.041C745.424 73.2816 745.424 90.7184 743.297 107.959L738.949 143.204C737.836 152.224 730.173 159 721.084 159H667C661.477 159 657 154.523 657 149V82V15Z" fill="#4E4E4E"/>
</g>
<g filter="url(#filter15_d)">
<path d="M602 15C602 9.47715 606.477 5 612 5H666.084C675.173 5 682.836 11.7755 683.949 20.7959L688.297 56.041C690.424 73.2816 690.424 90.7184 688.297 107.959L683.949 143.204C682.836 152.224 675.173 159 666.084 159H612C606.477 159 602 154.523 602 149V82V15Z" fill="#4E4E4E"/>
</g>
<g filter="url(#filter16_d)">
<path d="M549 15C549 9.47715 553.477 5 559 5H613.084C622.173 5 629.836 11.7755 630.949 20.7959L635.297 56.041C637.424 73.2816 637.424 90.7184 635.297 107.959L630.949 143.204C629.836 152.224 622.173 159 613.084 159H559C553.477 159 549 154.523 549 149V82V15Z" fill="#4E4E4E"/>
</g>
<g filter="url(#filter17_d)">
<path d="M492 15C492 9.47715 496.477 5 502 5H556.084C565.173 5 572.836 11.7755 573.949 20.7959L578.297 56.041C580.424 73.2816 580.424 90.7184 578.297 107.959L573.949 143.204C572.836 152.224 565.173 159 556.084 159H502C496.477 159 492 154.523 492 149V82V15Z" fill="#4E4E4E"/>
</g>
<g filter="url(#filter18_d)">
<path d="M437 15C437 9.47715 441.477 5 447 5H501.084C510.173 5 517.836 11.7755 518.949 20.7959L523.297 56.041C525.424 73.2816 525.424 90.7184 523.297 107.959L518.949 143.204C517.836 152.224 510.173 159 501.084 159H447C441.477 159 437 154.523 437 149V82V15Z" fill="#4E4E4E"/>
</g>
<g filter="url(#filter19_d)">
<path d="M384 15C384 9.47715 388.477 5 394 5H448.084C457.173 5 464.836 11.7755 465.949 20.7959L470.297 56.041C472.424 73.2816 472.424 90.7184 470.297 107.959L465.949 143.204C464.836 152.224 457.173 159 448.084 159H394C388.477 159 384 154.523 384 149V82V15Z" fill="#4E4E4E"/>
</g>
<g filter="url(#filter20_d)">
<path d="M327 15C327 9.47715 331.477 5 337 5H391.084C400.173 5 407.836 11.7755 408.949 20.7959L413.297 56.041C415.424 73.2816 415.424 90.7184 413.297 107.959L408.949 143.204C407.836 152.224 400.173 159 391.084 159H337C331.477 159 327 154.523 327 149V82V15Z" fill="#4E4E4E"/>
</g>
<g filter="url(#filter21_d)">
<path d="M272 15C272 9.47715 276.477 5 282 5H336.084C345.173 5 352.836 11.7755 353.949 20.7959L358.297 56.041C360.424 73.2816 360.424 90.7184 358.297 107.959L353.949 143.204C352.836 152.224 345.173 159 336.084 159H282C276.477 159 272 154.523 272 149V82V15Z" fill="#4E4E4E"/>
</g>
<g filter="url(#filter22_d)">
<path d="M219 15C219 9.47715 223.477 5 229 5H283.084C292.173 5 299.836 11.7755 300.949 20.7959L305.297 56.041C307.424 73.2816 307.424 90.7184 305.297 107.959L300.949 143.204C299.836 152.224 292.173 159 283.084 159H229C223.477 159 219 154.523 219 149V82V15Z" fill="#4E4E4E"/>
</g>
<g filter="url(#filter23_d)">
<path d="M162 15C162 9.47715 166.477 5 172 5H226.084C235.173 5 242.836 11.7755 243.949 20.7959L248.297 56.041C250.424 73.2816 250.424 90.7184 248.297 107.959L243.949 143.204C242.836 152.224 235.173 159 226.084 159H172C166.477 159 162 154.523 162 149V82V15Z" fill="#4E4E4E"/>
</g>
<g filter="url(#filter24_d)">
<path d="M107 15C107 9.47715 111.477 5 117 5H171.084C180.173 5 187.836 11.7755 188.949 20.7959L193.297 56.041C195.424 73.2816 195.424 90.7184 193.297 107.959L188.949 143.204C187.836 152.224 180.173 159 171.084 159H117C111.477 159 107 154.523 107 149V82V15Z" fill="#4E4E4E"/>
</g>
<g filter="url(#filter25_d)">
<path d="M54 15C54 9.47715 58.4772 5 64 5H118.084C127.173 5 134.836 11.7755 135.949 20.7959L140.297 56.041C142.424 73.2816 142.424 90.7184 140.297 107.959L135.949 143.204C134.836 152.224 127.173 159 118.084 159H64C58.4772 159 54 154.523 54 149V82V15Z" fill="#4E4E4E"/>
</g>
<g filter="url(#filter26_d)">
<path d="M-3 15C-3 9.47715 1.47715 5 7 5H61.0843C70.1731 5 77.8359 11.7755 78.9488 20.7959L83.2973 56.041C85.4244 73.2816 85.4244 90.7184 83.2973 107.959L78.9489 143.204C77.8359 152.224 70.1731 159 61.0843 159H7C1.47715 159 -3 154.523 -3 149V82V15Z" fill="#4E4E4E"/>
</g>
<defs>
<filter id="filter0_d" x="1363" y="0" width="100.893" height="162" filterUnits="userSpaceOnUse" color-interpolation-filters="sRGB">
<feFlood flood-opacity="0" result="BackgroundImageFix"/>
<feColorMatrix in="SourceAlpha" type="matrix" values="0 0 0 0 0 0 0 0 0 0 0 0 0 0 0 0 0 0 127 0"/>
<feOffset dx="9" dy="-1"/>
<feGaussianBlur stdDeviation="2"/>
<feColorMatrix type="matrix" values="0 0 0 0 0 0 0 0 0 0 0 0 0 0 0 0 0 0 0.32 0"/>
<feBlend mode="normal" in2="BackgroundImageFix" result="effect1_dropShadow"/>
<feBlend mode="normal" in="SourceGraphic" in2="effect1_dropShadow" result="shape"/>
</filter>
<filter id="filter1_d" x="1310" y="0" width="100.893" height="162" filterUnits="userSpaceOnUse" color-interpolation-filters="sRGB">
<feFlood flood-opacity="0" result="BackgroundImageFix"/>
<feColorMatrix in="SourceAlpha" type="matrix" values="0 0 0 0 0 0 0 0 0 0 0 0 0 0 0 0 0 0 127 0"/>
<feOffset dx="9" dy="-1"/>
<feGaussianBlur stdDeviation="2"/>
<feColorMatrix type="matrix" values="0 0 0 0 0 0 0 0 0 0 0 0 0 0 0 0 0 0 0.32 0"/>
<feBlend mode="normal" in2="BackgroundImageFix" result="effect1_dropShadow"/>
<feBlend mode="normal" in="SourceGraphic" in2="effect1_dropShadow" result="shape"/>
</filter>
<filter id="filter2_d" x="1253" y="0" width="100.893" height="162" filterUnits="userSpaceOnUse" color-interpolation-filters="sRGB">
<feFlood flood-opacity="0" result="BackgroundImageFix"/>
<feColorMatrix in="SourceAlpha" type="matrix" values="0 0 0 0 0 0 0 0 0 0 0 0 0 0 0 0 0 0 127 0"/>
<feOffset dx="9" dy="-1"/>
<feGaussianBlur stdDeviation="2"/>
<feColorMatrix type="matrix" values="0 0 0 0 0 0 0 0 0 0 0 0 0 0 0 0 0 0 0.32 0"/>
<feBlend mode="normal" in2="BackgroundImageFix" result="effect1_dropShadow"/>
<feBlend mode="normal" in="SourceGraphic" in2="effect1_dropShadow" result="shape"/>
</filter>
<filter id="filter3_d" x="1262" y="0" width="100.893" height="162" filterUnits="userSpaceOnUse" color-interpolation-filters="sRGB">
<feFlood flood-opacity="0" result="BackgroundImageFix"/>
<feColorMatrix in="SourceAlpha" type="matrix" values="0 0 0 0 0 0 0 0 0 0 0 0 0 0 0 0 0 0 127 0"/>
<feOffset dx="9" dy="-1"/>
<feGaussianBlur stdDeviation="2"/>
<feColorMatrix type="matrix" values="0 0 0 0 0 0 0 0 0 0 0 0 0 0 0 0 0 0 0.32 0"/>
<feBlend mode="normal" in2="BackgroundImageFix" result="effect1_dropShadow"/>
<feBlend mode="normal" in="SourceGraphic" in2="effect1_dropShadow" result="shape"/>
</filter>
<filter id="filter4_d" x="1209" y="0" width="100.893" height="162" filterUnits="userSpaceOnUse" color-interpolation-filters="sRGB">
<feFlood flood-opacity="0" result="BackgroundImageFix"/>
<feColorMatrix in="SourceAlpha" type="matrix" values="0 0 0 0 0 0 0 0 0 0 0 0 0 0 0 0 0 0 127 0"/>
<feOffset dx="9" dy="-1"/>
<feGaussianBlur stdDeviation="2"/>
<feColorMatrix type="matrix" values="0 0 0 0 0 0 0 0 0 0 0 0 0 0 0 0 0 0 0.32 0"/>
<feBlend mode="normal" in2="BackgroundImageFix" result="effect1_dropShadow"/>
<feBlend mode="normal" in="SourceGraphic" in2="effect1_dropShadow" result="shape"/>
</filter>
<filter id="filter5_d" x="1152" y="0" width="100.893" height="162" filterUnits="userSpaceOnUse" color-interpolation-filters="sRGB">
<feFlood flood-opacity="0" result="BackgroundImageFix"/>
<feColorMatrix in="SourceAlpha" type="matrix" values="0 0 0 0 0 0 0 0 0 0 0 0 0 0 0 0 0 0 127 0"/>
<feOffset dx="9" dy="-1"/>
<feGaussianBlur stdDeviation="2"/>
<feColorMatrix type="matrix" values="0 0 0 0 0 0 0 0 0 0 0 0 0 0 0 0 0 0 0.32 0"/>
<feBlend mode="normal" in2="BackgroundImageFix" result="effect1_dropShadow"/>
<feBlend mode="normal" in="SourceGraphic" in2="effect1_dropShadow" result="shape"/>
</filter>
<filter id="filter6_d" x="1097" y="0" width="100.893" height="162" filterUnits="userSpaceOnUse" color-interpolation-filters="sRGB">
<feFlood flood-opacity="0" result="BackgroundImageFix"/>
<feColorMatrix in="SourceAlpha" type="matrix" values="0 0 0 0 0 0 0 0 0 0 0 0 0 0 0 0 0 0 127 0"/>
<feOffset dx="9" dy="-1"/>
<feGaussianBlur stdDeviation="2"/>
<feColorMatrix type="matrix" values="0 0 0 0 0 0 0 0 0 0 0 0 0 0 0 0 0 0 0.32 0"/>
<feBlend mode="normal" in2="BackgroundImageFix" result="effect1_dropShadow"/>
<feBlend mode="normal" in="SourceGraphic" in2="effect1_dropShadow" result="shape"/>
</filter>
<filter id="filter7_d" x="1044" y="0" width="100.893" height="162" filterUnits="userSpaceOnUse" color-interpolation-filters="sRGB">
<feFlood flood-opacity="0" result="BackgroundImageFix"/>
<feColorMatrix in="SourceAlpha" type="matrix" values="0 0 0 0 0 0 0 0 0 0 0 0 0 0 0 0 0 0 127 0"/>
<feOffset dx="9" dy="-1"/>
<feGaussianBlur stdDeviation="2"/>
<feColorMatrix type="matrix" values="0 0 0 0 0 0 0 0 0 0 0 0 0 0 0 0 0 0 0.32 0"/>
<feBlend mode="normal" in2="BackgroundImageFix" result="effect1_dropShadow"/>
<feBlend mode="normal" in="SourceGraphic" in2="effect1_dropShadow" result="shape"/>
</filter>
<filter id="filter8_d" x="987" y="0" width="100.893" height="162" filterUnits="userSpaceOnUse" color-interpolation-filters="sRGB">
<feFlood flood-opacity="0" result="BackgroundImageFix"/>
<feColorMatrix in="SourceAlpha" type="matrix" values="0 0 0 0 0 0 0 0 0 0 0 0 0 0 0 0 0 0 127 0"/>
<feOffset dx="9" dy="-1"/>
<feGaussianBlur stdDeviation="2"/>
<feColorMatrix type="matrix" values="0 0 0 0 0 0 0 0 0 0 0 0 0 0 0 0 0 0 0.32 0"/>
<feBlend mode="normal" in2="BackgroundImageFix" result="effect1_dropShadow"/>
<feBlend mode="normal" in="SourceGraphic" in2="effect1_dropShadow" result="shape"/>
</filter>
<filter id="filter9_d" x="932" y="0" width="100.893" height="162" filterUnits="userSpaceOnUse" color-interpolation-filters="sRGB">
<feFlood flood-opacity="0" result="BackgroundImageFix"/>
<feColorMatrix in="SourceAlpha" type="matrix" values="0 0 0 0 0 0 0 0 0 0 0 0 0 0 0 0 0 0 127 0"/>
<feOffset dx="9" dy="-1"/>
<feGaussianBlur stdDeviation="2"/>
<feColorMatrix type="matrix" values="0 0 0 0 0 0 0 0 0 0 0 0 0 0 0 0 0 0 0.32 0"/>
<feBlend mode="normal" in2="BackgroundImageFix" result="effect1_dropShadow"/>
<feBlend mode="normal" in="SourceGraphic" in2="effect1_dropShadow" result="shape"/>
</filter>
<filter id="filter10_d" x="879" y="0" width="100.893" height="162" filterUnits="userSpaceOnUse" color-interpolation-filters="sRGB">
<feFlood flood-opacity="0" result="BackgroundImageFix"/>
<feColorMatrix in="SourceAlpha" type="matrix" values="0 0 0 0 0 0 0 0 0 0 0 0 0 0 0 0 0 0 127 0"/>
<feOffset dx="9" dy="-1"/>
<feGaussianBlur stdDeviation="2"/>
<feColorMatrix type="matrix" values="0 0 0 0 0 0 0 0 0 0 0 0 0 0 0 0 0 0 0.32 0"/>
<feBlend mode="normal" in2="BackgroundImageFix" result="effect1_dropShadow"/>
<feBlend mode="normal" in="SourceGraphic" in2="effect1_dropShadow" result="shape"/>
</filter>
<filter id="filter11_d" x="822" y="0" width="100.893" height="162" filterUnits="userSpaceOnUse" color-interpolation-filters="sRGB">
<feFlood flood-opacity="0" result="BackgroundImageFix"/>
<feColorMatrix in="SourceAlpha" type="matrix" values="0 0 0 0 0 0 0 0 0 0 0 0 0 0 0 0 0 0 127 0"/>
<feOffset dx="9" dy="-1"/>
<feGaussianBlur stdDeviation="2"/>
<feColorMatrix type="matrix" values="0 0 0 0 0 0 0 0 0 0 0 0 0 0 0 0 0 0 0.32 0"/>
<feBlend mode="normal" in2="BackgroundImageFix" result="effect1_dropShadow"/>
<feBlend mode="normal" in="SourceGraphic" in2="effect1_dropShadow" result="shape"/>
</filter>
<filter id="filter12_d" x="767" y="0" width="100.893" height="162" filterUnits="userSpaceOnUse" color-interpolation-filters="sRGB">
<feFlood flood-opacity="0" result="BackgroundImageFix"/>
<feColorMatrix in="SourceAlpha" type="matrix" values="0 0 0 0 0 0 0 0 0 0 0 0 0 0 0 0 0 0 127 0"/>
<feOffset dx="9" dy="-1"/>
<feGaussianBlur stdDeviation="2"/>
<feColorMatrix type="matrix" values="0 0 0 0 0 0 0 0 0 0 0 0 0 0 0 0 0 0 0.32 0"/>
<feBlend mode="normal" in2="BackgroundImageFix" result="effect1_dropShadow"/>
<feBlend mode="normal" in="SourceGraphic" in2="effect1_dropShadow" result="shape"/>
</filter>
<filter id="filter13_d" x="714" y="0" width="100.893" height="162" filterUnits="userSpaceOnUse" color-interpolation-filters="sRGB">
<feFlood flood-opacity="0" result="BackgroundImageFix"/>
<feColorMatrix in="SourceAlpha" type="matrix" values="0 0 0 0 0 0 0 0 0 0 0 0 0 0 0 0 0 0 127 0"/>
<feOffset dx="9" dy="-1"/>
<feGaussianBlur stdDeviation="2"/>
<feColorMatrix type="matrix" values="0 0 0 0 0 0 0 0 0 0 0 0 0 0 0 0 0 0 0.32 0"/>
<feBlend mode="normal" in2="BackgroundImageFix" result="effect1_dropShadow"/>
<feBlend mode="normal" in="SourceGraphic" in2="effect1_dropShadow" result="shape"/>
</filter>
<filter id="filter14_d" x="657" y="0" width="100.893" height="162" filterUnits="userSpaceOnUse" color-interpolation-filters="sRGB">
<feFlood flood-opacity="0" result="BackgroundImageFix"/>
<feColorMatrix in="SourceAlpha" type="matrix" values="0 0 0 0 0 0 0 0 0 0 0 0 0 0 0 0 0 0 127 0"/>
<feOffset dx="9" dy="-1"/>
<feGaussianBlur stdDeviation="2"/>
<feColorMatrix type="matrix" values="0 0 0 0 0 0 0 0 0 0 0 0 0 0 0 0 0 0 0.32 0"/>
<feBlend mode="normal" in2="BackgroundImageFix" result="effect1_dropShadow"/>
<feBlend mode="normal" in="SourceGraphic" in2="effect1_dropShadow" result="shape"/>
</filter>
<filter id="filter15_d" x="602" y="0" width="100.893" height="162" filterUnits="userSpaceOnUse" color-interpolation-filters="sRGB">
<feFlood flood-opacity="0" result="BackgroundImageFix"/>
<feColorMatrix in="SourceAlpha" type="matrix" values="0 0 0 0 0 0 0 0 0 0 0 0 0 0 0 0 0 0 127 0"/>
<feOffset dx="9" dy="-1"/>
<feGaussianBlur stdDeviation="2"/>
<feColorMatrix type="matrix" values="0 0 0 0 0 0 0 0 0 0 0 0 0 0 0 0 0 0 0.32 0"/>
<feBlend mode="normal" in2="BackgroundImageFix" result="effect1_dropShadow"/>
<feBlend mode="normal" in="SourceGraphic" in2="effect1_dropShadow" result="shape"/>
</filter>
<filter id="filter16_d" x="549" y="0" width="100.893" height="162" filterUnits="userSpaceOnUse" color-interpolation-filters="sRGB">
<feFlood flood-opacity="0" result="BackgroundImageFix"/>
<feColorMatrix in="SourceAlpha" type="matrix" values="0 0 0 0 0 0 0 0 0 0 0 0 0 0 0 0 0 0 127 0"/>
<feOffset dx="9" dy="-1"/>
<feGaussianBlur stdDeviation="2"/>
<feColorMatrix type="matrix" values="0 0 0 0 0 0 0 0 0 0 0 0 0 0 0 0 0 0 0.32 0"/>
<feBlend mode="normal" in2="BackgroundImageFix" result="effect1_dropShadow"/>
<feBlend mode="normal" in="SourceGraphic" in2="effect1_dropShadow" result="shape"/>
</filter>
<filter id="filter17_d" x="492" y="0" width="100.893" height="162" filterUnits="userSpaceOnUse" color-interpolation-filters="sRGB">
<feFlood flood-opacity="0" result="BackgroundImageFix"/>
<feColorMatrix in="SourceAlpha" type="matrix" values="0 0 0 0 0 0 0 0 0 0 0 0 0 0 0 0 0 0 127 0"/>
<feOffset dx="9" dy="-1"/>
<feGaussianBlur stdDeviation="2"/>
<feColorMatrix type="matrix" values="0 0 0 0 0 0 0 0 0 0 0 0 0 0 0 0 0 0 0.32 0"/>
<feBlend mode="normal" in2="BackgroundImageFix" result="effect1_dropShadow"/>
<feBlend mode="normal" in="SourceGraphic" in2="effect1_dropShadow" result="shape"/>
</filter>
<filter id="filter18_d" x="437" y="0" width="100.893" height="162" filterUnits="userSpaceOnUse" color-interpolation-filters="sRGB">
<feFlood flood-opacity="0" result="BackgroundImageFix"/>
<feColorMatrix in="SourceAlpha" type="matrix" values="0 0 0 0 0 0 0 0 0 0 0 0 0 0 0 0 0 0 127 0"/>
<feOffset dx="9" dy="-1"/>
<feGaussianBlur stdDeviation="2"/>
<feColorMatrix type="matrix" values="0 0 0 0 0 0 0 0 0 0 0 0 0 0 0 0 0 0 0.32 0"/>
<feBlend mode="normal" in2="BackgroundImageFix" result="effect1_dropShadow"/>
<feBlend mode="normal" in="SourceGraphic" in2="effect1_dropShadow" result="shape"/>
</filter>
<filter id="filter19_d" x="384" y="0" width="100.893" height="162" filterUnits="userSpaceOnUse" color-interpolation-filters="sRGB">
<feFlood flood-opacity="0" result="BackgroundImageFix"/>
<feColorMatrix in="SourceAlpha" type="matrix" values="0 0 0 0 0 0 0 0 0 0 0 0 0 0 0 0 0 0 127 0"/>
<feOffset dx="9" dy="-1"/>
<feGaussianBlur stdDeviation="2"/>
<feColorMatrix type="matrix" values="0 0 0 0 0 0 0 0 0 0 0 0 0 0 0 0 0 0 0.32 0"/>
<feBlend mode="normal" in2="BackgroundImageFix" result="effect1_dropShadow"/>
<feBlend mode="normal" in="SourceGraphic" in2="effect1_dropShadow" result="shape"/>
</filter>
<filter id="filter20_d" x="327" y="0" width="100.893" height="162" filterUnits="userSpaceOnUse" color-interpolation-filters="sRGB">
<feFlood flood-opacity="0" result="BackgroundImageFix"/>
<feColorMatrix in="SourceAlpha" type="matrix" values="0 0 0 0 0 0 0 0 0 0 0 0 0 0 0 0 0 0 127 0"/>
<feOffset dx="9" dy="-1"/>
<feGaussianBlur stdDeviation="2"/>
<feColorMatrix type="matrix" values="0 0 0 0 0 0 0 0 0 0 0 0 0 0 0 0 0 0 0.32 0"/>
<feBlend mode="normal" in2="BackgroundImageFix" result="effect1_dropShadow"/>
<feBlend mode="normal" in="SourceGraphic" in2="effect1_dropShadow" result="shape"/>
</filter>
<filter id="filter21_d" x="272" y="0" width="100.893" height="162" filterUnits="userSpaceOnUse" color-interpolation-filters="sRGB">
<feFlood flood-opacity="0" result="BackgroundImageFix"/>
<feColorMatrix in="SourceAlpha" type="matrix" values="0 0 0 0 0 0 0 0 0 0 0 0 0 0 0 0 0 0 127 0"/>
<feOffset dx="9" dy="-1"/>
<feGaussianBlur stdDeviation="2"/>
<feColorMatrix type="matrix" values="0 0 0 0 0 0 0 0 0 0 0 0 0 0 0 0 0 0 0.32 0"/>
<feBlend mode="normal" in2="BackgroundImageFix" result="effect1_dropShadow"/>
<feBlend mode="normal" in="SourceGraphic" in2="effect1_dropShadow" result="shape"/>
</filter>
<filter id="filter22_d" x="219" y="0" width="100.893" height="162" filterUnits="userSpaceOnUse" color-interpolation-filters="sRGB">
<feFlood flood-opacity="0" result="BackgroundImageFix"/>
<feColorMatrix in="SourceAlpha" type="matrix" values="0 0 0 0 0 0 0 0 0 0 0 0 0 0 0 0 0 0 127 0"/>
<feOffset dx="9" dy="-1"/>
<feGaussianBlur stdDeviation="2"/>
<feColorMatrix type="matrix" values="0 0 0 0 0 0 0 0 0 0 0 0 0 0 0 0 0 0 0.32 0"/>
<feBlend mode="normal" in2="BackgroundImageFix" result="effect1_dropShadow"/>
<feBlend mode="normal" in="SourceGraphic" in2="effect1_dropShadow" result="shape"/>
</filter>
<filter id="filter23_d" x="162" y="0" width="100.893" height="162" filterUnits="userSpaceOnUse" color-interpolation-filters="sRGB">
<feFlood flood-opacity="0" result="BackgroundImageFix"/>
<feColorMatrix in="SourceAlpha" type="matrix" values="0 0 0 0 0 0 0 0 0 0 0 0 0 0 0 0 0 0 127 0"/>
<feOffset dx="9" dy="-1"/>
<feGaussianBlur stdDeviation="2"/>
<feColorMatrix type="matrix" values="0 0 0 0 0 0 0 0 0 0 0 0 0 0 0 0 0 0 0.32 0"/>
<feBlend mode="normal" in2="BackgroundImageFix" result="effect1_dropShadow"/>
<feBlend mode="normal" in="SourceGraphic" in2="effect1_dropShadow" result="shape"/>
</filter>
<filter id="filter24_d" x="107" y="0" width="100.893" height="162" filterUnits="userSpaceOnUse" color-interpolation-filters="sRGB">
<feFlood flood-opacity="0" result="BackgroundImageFix"/>
<feColorMatrix in="SourceAlpha" type="matrix" values="0 0 0 0 0 0 0 0 0 0 0 0 0 0 0 0 0 0 127 0"/>
<feOffset dx="9" dy="-1"/>
<feGaussianBlur stdDeviation="2"/>
<feColorMatrix type="matrix" values="0 0 0 0 0 0 0 0 0 0 0 0 0 0 0 0 0 0 0.32 0"/>
<feBlend mode="normal" in2="BackgroundImageFix" result="effect1_dropShadow"/>
<feBlend mode="normal" in="SourceGraphic" in2="effect1_dropShadow" result="shape"/>
</filter>
<filter id="filter25_d" x="54" y="0" width="100.893" height="162" filterUnits="userSpaceOnUse" color-interpolation-filters="sRGB">
<feFlood flood-opacity="0" result="BackgroundImageFix"/>
<feColorMatrix in="SourceAlpha" type="matrix" values="0 0 0 0 0 0 0 0 0 0 0 0 0 0 0 0 0 0 127 0"/>
<feOffset dx="9" dy="-1"/>
<feGaussianBlur stdDeviation="2"/>
<feColorMatrix type="matrix" values="0 0 0 0 0 0 0 0 0 0 0 0 0 0 0 0 0 0 0.32 0"/>
<feBlend mode="normal" in2="BackgroundImageFix" result="effect1_dropShadow"/>
<feBlend mode="normal" in="SourceGraphic" in2="effect1_dropShadow" result="shape"/>
</filter>
<filter id="filter26_d" x="-3" y="0" width="100.893" height="162" filterUnits="userSpaceOnUse" color-interpolation-filters="sRGB">
<feFlood flood-opacity="0" result="BackgroundImageFix"/>
<feColorMatrix in="SourceAlpha" type="matrix" values="0 0 0 0 0 0 0 0 0 0 0 0 0 0 0 0 0 0 127 0"/>
<feOffset dx="9" dy="-1"/>
<feGaussianBlur stdDeviation="2"/>
<feColorMatrix type="matrix" values="0 0 0 0 0 0 0 0 0 0 0 0 0 0 0 0 0 0 0.32 0"/>
<feBlend mode="normal" in2="BackgroundImageFix" result="effect1_dropShadow"/>
<feBlend mode="normal" in="SourceGraphic" in2="effect1_dropShadow" result="shape"/>
</filter>
</defs>
</svg>
