<svg width="1251" height="165" viewBox="0 0 1251 165" fill="none" xmlns="http://www.w3.org/2000/svg">
<path d="M126.801 124.912L126.819 124.916L126.837 124.918L208.424 137.403L208.434 137.405L208.443 137.406L262.834 143.648L262.887 143.654L262.94 143.649L326.397 137.407L326.474 137.399L326.545 137.368L399.05 106.164L444.279 90.5909H516.717H516.77L516.821 90.58L634.55 65.6356L679.719 78.0774L706.878 90.5453L706.951 90.5786L707.03 90.5876L734.226 93.7089L734.319 93.7196L734.411 93.6955L852.195 62.5H906.457L1024.24 93.6955L1024.26 93.7011L1024.28 93.7049L1078.68 103.069L1078.7 103.073L1078.73 103.075L1169.38 109.317L1169.4 109.318H1169.41H1250.5V164.5H0.5V112.439H72.4651L126.801 124.912Z" fill="#F0ACB2" stroke="#DA3B57"/>
<path d="M126.896 159.591L126.902 159.591L208.489 161.409L208.492 161.409L262.883 162.318L262.891 162.318L262.898 162.318L326.355 161.409L326.367 161.409L326.379 161.408L398.895 156.863L398.901 156.863L444.208 154.591H516.717H516.725L516.733 154.591L634.563 150.955L679.858 152.772L679.871 152.772L707.054 154.59L707.066 154.591L707.079 154.591L734.274 155.045L734.288 155.046L734.302 155.045L852.13 150.5H852.14H906.512H906.522L1024.35 155.045L1024.36 155.045L1078.75 156.409L1078.76 156.409L1169.41 157.318H1169.41H1250.5V164.5H0.5V157.773H72.5134L126.896 159.591Z" fill="#E4BFE1" stroke="white"/>
<line x1="1" y1="0.5" x2="1251" y2="0.5" stroke="#A8AAC2"/>
<line x1="1" y1="41.5" x2="1251" y2="41.5" stroke="#A8AAC2"/>
<line x1="1" y1="82.5" x2="1251" y2="82.5" stroke="#A8AAC2"/>
<line x1="1" y1="123.5" x2="1251" y2="123.5" stroke="#A8AAC2"/>
<line x1="1" y1="164.5" x2="1251" y2="164.5" stroke="#A8AAC2"/>
<line x1="0.5" y1="165" x2="0.499993" y2="1" stroke="#A8AAC2"/>
<line x1="44.5" y1="165" x2="44.5" y2="1" stroke="#A8AAC2"/>
<line x1="91.5" y1="165" x2="91.5" y2="1" stroke="#A8AAC2"/>
<line x1="138.5" y1="165" x2="138.5" y2="1" stroke="#A8AAC2"/>
<line x1="185.5" y1="165" x2="185.5" y2="1" stroke="#A8AAC2"/>
<line x1="232.5" y1="165" x2="232.5" y2="1" stroke="#A8AAC2"/>
<line x1="279.5" y1="165" x2="279.5" y2="1" stroke="#A8AAC2"/>
<line x1="326.5" y1="165" x2="326.5" y2="1" stroke="#A8AAC2"/>
<line x1="373.5" y1="165" x2="373.5" y2="1" stroke="#A8AAC2"/>
<line x1="420.5" y1="165" x2="420.5" y2="1" stroke="#A8AAC2"/>
<line x1="467.5" y1="165" x2="467.5" y2="1" stroke="#A8AAC2"/>
<line x1="514.5" y1="165" x2="514.5" y2="1" stroke="#A8AAC2"/>
<line x1="561.5" y1="165" x2="561.5" y2="1" stroke="#A8AAC2"/>
<line x1="608.5" y1="165" x2="608.5" y2="1" stroke="#A8AAC2"/>
<line x1="655.5" y1="165" x2="655.5" y2="1" stroke="#A8AAC2"/>
<line x1="702.5" y1="165" x2="702.5" y2="1" stroke="#A8AAC2"/>
<line x1="749.5" y1="165" x2="749.5" y2="1" stroke="#A8AAC2"/>
<line x1="796.5" y1="165" x2="796.5" y2="1" stroke="#A8AAC2"/>
<line x1="843.5" y1="165" x2="843.5" y2="1" stroke="#A8AAC2"/>
<line x1="890.5" y1="165" x2="890.5" y2="1" stroke="#A8AAC2"/>
<line x1="937.5" y1="165" x2="937.5" y2="1" stroke="#A8AAC2"/>
<line x1="984.5" y1="165" x2="984.5" y2="1" stroke="#A8AAC2"/>
<line x1="1031.5" y1="165" x2="1031.5" y2="1" stroke="#A8AAC2"/>
<line x1="1078.5" y1="165" x2="1078.5" y2="1" stroke="#A8AAC2"/>
<line x1="1125.5" y1="165" x2="1125.5" y2="1" stroke="#A8AAC2"/>
<line x1="1172.5" y1="165" x2="1172.5" y2="1" stroke="#A8AAC2"/>
<line x1="1219.5" y1="165" x2="1219.5" y2="1" stroke="#A8AAC2"/>
<line x1="1250.5" y1="165" x2="1250.5" y2="1" stroke="#A8AAC2"/>
</svg>
