<svg width="24" height="24" viewBox="0 0 24 24" fill="none" xmlns="http://www.w3.org/2000/svg">
<path d="M22.5597 13.2999V10.6599L19.4176 10.1463C19.2314 9.4023 18.9396 8.70294 18.5546 8.06214L20.3858 5.45238L18.5186 3.58662L15.942 5.43894C15.2997 5.05014 14.5956 4.7535 13.8463 4.56678L13.2991 1.44006H10.6591L10.1503 4.55622C9.40051 4.74006 8.69251 5.03286 8.04835 5.41974L5.47939 3.58422L3.61267 5.44998L5.41987 8.0343C5.02915 8.68086 4.73203 9.3879 4.54339 10.1425L1.44067 10.6589V13.2989L4.54003 13.8485C4.72723 14.6012 5.02435 15.3082 5.41651 15.9562L3.58483 18.518L5.45059 20.3857L8.03827 18.5732C8.68435 18.961 9.39043 19.2562 10.1402 19.441L10.6591 22.5601H13.2991L13.854 19.4338C14.5999 19.2447 15.3045 18.9476 15.9444 18.5583L18.5498 20.3866L20.416 18.5189L18.556 15.9365C18.941 15.2957 19.2333 14.5954 19.4176 13.8514L22.5597 13.2999Z" stroke="#AB6F46" stroke-width="1.5" stroke-miterlimit="10" stroke-linecap="round" stroke-linejoin="round"/>
<path d="M11.9999 8.64001C11.1088 8.64001 10.2541 8.99401 9.62401 9.62414C8.99389 10.2543 8.63989 11.1089 8.63989 12C8.63989 12.8911 8.99389 13.7458 9.62401 14.3759C10.2541 15.006 11.1088 15.36 11.9999 15.36C12.891 15.36 13.7456 15.006 14.3758 14.3759C15.0059 13.7458 15.3599 12.8911 15.3599 12C15.3599 11.1089 15.0059 10.2543 14.3758 9.62414C13.7456 8.99401 12.891 8.64001 11.9999 8.64001Z" stroke="#AB6F46" stroke-width="1.5" stroke-miterlimit="10" stroke-linecap="round" stroke-linejoin="round"/>
</svg>
