<svg width="1251" height="165" viewBox="0 0 1251 165" fill="none" xmlns="http://www.w3.org/2000/svg">
<rect x="1.5" y="150.5" width="21" height="14" fill="#E4BFE1" stroke="white"/>
<rect x="46.5" y="148.5" width="21" height="16" fill="#E4BFE1" stroke="white"/>
<rect x="91.5" y="146.5" width="21" height="18" fill="#E4BFE1" stroke="white"/>
<rect x="136.5" y="144.5" width="21" height="20" fill="#E4BFE1" stroke="white"/>
<rect x="181.5" y="144.5" width="21" height="20" fill="#E4BFE1" stroke="white"/>
<rect x="226.5" y="144.5" width="21" height="20" fill="#E4BFE1" stroke="white"/>
<rect x="271.5" y="142.5" width="21" height="22" fill="#E4BFE1" stroke="white"/>
<rect x="316.5" y="141.5" width="21" height="23" fill="#E4BFE1" stroke="white"/>
<rect x="361.5" y="139.5" width="21" height="25" fill="#E4BFE1" stroke="white"/>
<rect x="406.5" y="137.5" width="21" height="27" fill="#E4BFE1" stroke="white"/>
<rect x="451.5" y="135.5" width="21" height="29" fill="#E4BFE1" stroke="white"/>
<rect x="496.5" y="135.5" width="21" height="29" fill="#E4BFE1" stroke="white"/>
<rect x="541.5" y="134.5" width="21" height="30" fill="#E4BFE1" stroke="white"/>
<rect x="586.5" y="131.5" width="21" height="33" fill="#E4BFE1" stroke="white"/>
<rect x="631.5" y="127.5" width="21" height="37" fill="#E4BFE1" stroke="white"/>
<rect x="676.5" y="122.5" width="21" height="42" fill="#E4BFE1" stroke="white"/>
<rect x="721.5" y="117.5" width="21" height="47" fill="#E4BFE1" stroke="white"/>
<rect x="766.5" y="113.5" width="21" height="51" fill="#E4BFE1" stroke="white"/>
<rect x="811.5" y="108.5" width="21" height="56" fill="#E4BFE1" stroke="white"/>
<rect x="856.5" y="101.5" width="21" height="63" fill="#E4BFE1" stroke="white"/>
<rect x="901.5" y="96.5" width="21" height="68" fill="#E4BFE1" stroke="white"/>
<rect x="946.5" y="91.5" width="21" height="73" fill="#E4BFE1" stroke="white"/>
<rect x="991.5" y="83.5" width="21" height="81" fill="#E4BFE1" stroke="white"/>
<rect x="1036.5" y="74.5" width="21" height="90" fill="#E4BFE1" stroke="white"/>
<rect x="1081.5" y="61.5" width="21" height="103" fill="#E4BFE1" stroke="white"/>
<rect x="1126.5" y="51.5" width="21" height="113" fill="#E4BFE1" stroke="white"/>
<rect x="1171.5" y="38.5" width="21" height="126" fill="#E4BFE1" stroke="white"/>
<rect x="1215.5" y="27.5" width="21" height="137" fill="#E4BFE1" stroke="white"/>
<rect x="1237.5" y="25.5" width="13" height="139" fill="#E4BFE1" stroke="white"/>
<rect x="23.5" y="148.5" width="21" height="16" fill="#E4BFE1" stroke="white"/>
<rect x="68.5" y="148.5" width="21" height="16" fill="#E4BFE1" stroke="white"/>
<rect x="113.5" y="144.5" width="21" height="20" fill="#E4BFE1" stroke="white"/>
<rect x="158.5" y="144.5" width="21" height="20" fill="#E4BFE1" stroke="white"/>
<rect x="203.5" y="144.5" width="21" height="20" fill="#E4BFE1" stroke="white"/>
<rect x="248.5" y="142.5" width="21" height="22" fill="#E4BFE1" stroke="white"/>
<rect x="293.5" y="142.5" width="21" height="22" fill="#E4BFE1" stroke="white"/>
<rect x="338.5" y="139.5" width="21" height="25" fill="#E4BFE1" stroke="white"/>
<rect x="383.5" y="137.5" width="21" height="27" fill="#E4BFE1" stroke="white"/>
<rect x="428.5" y="137.5" width="21" height="27" fill="#E4BFE1" stroke="white"/>
<rect x="473.5" y="135.5" width="21" height="29" fill="#E4BFE1" stroke="white"/>
<rect x="518.5" y="135.5" width="21" height="29" fill="#E4BFE1" stroke="white"/>
<rect x="563.5" y="134.5" width="21" height="30" fill="#E4BFE1" stroke="white"/>
<rect x="608.5" y="129.5" width="21" height="35" fill="#E4BFE1" stroke="white"/>
<rect x="653.5" y="125.5" width="21" height="39" fill="#E4BFE1" stroke="white"/>
<rect x="698.5" y="120.5" width="21" height="44" fill="#E4BFE1" stroke="white"/>
<rect x="743.5" y="115.5" width="21" height="49" fill="#E4BFE1" stroke="white"/>
<rect x="788.5" y="111.5" width="21" height="53" fill="#E4BFE1" stroke="white"/>
<rect x="833.5" y="104.5" width="21" height="60" fill="#E4BFE1" stroke="white"/>
<rect x="878.5" y="99.5" width="21" height="65" fill="#E4BFE1" stroke="white"/>
<rect x="923.5" y="94.5" width="21" height="70" fill="#E4BFE1" stroke="white"/>
<rect x="968.5" y="88.5" width="21" height="76" fill="#E4BFE1" stroke="white"/>
<rect x="1013.5" y="78.5" width="21" height="86" fill="#E4BFE1" stroke="white"/>
<rect x="1058.5" y="67.5" width="21" height="97" fill="#E4BFE1" stroke="white"/>
<rect x="1103.5" y="54.5" width="21" height="110" fill="#E4BFE1" stroke="white"/>
<rect x="1148.5" y="46.5" width="21" height="118" fill="#E4BFE1" stroke="white"/>
<rect x="1193.5" y="33.5" width="21" height="131" fill="#E4BFE1" stroke="white"/>
<line x1="1" y1="0.5" x2="1251" y2="0.5" stroke="#A8AAC2"/>
<line x1="1" y1="41.5" x2="1251" y2="41.5" stroke="#A8AAC2"/>
<line x1="1" y1="82.5" x2="1251" y2="82.5" stroke="#A8AAC2"/>
<line x1="1" y1="123.5" x2="1251" y2="123.5" stroke="#A8AAC2"/>
<line x1="1" y1="164.5" x2="1251" y2="164.5" stroke="#A8AAC2"/>
<line x1="0.5" y1="165" x2="0.499993" y2="1" stroke="#A8AAC2"/>
<line x1="44.5" y1="165" x2="44.5" y2="1" stroke="#A8AAC2"/>
<line x1="91.5" y1="165" x2="91.5" y2="1" stroke="#A8AAC2"/>
<line x1="138.5" y1="165" x2="138.5" y2="1" stroke="#A8AAC2"/>
<line x1="185.5" y1="165" x2="185.5" y2="1" stroke="#A8AAC2"/>
<line x1="232.5" y1="165" x2="232.5" y2="1" stroke="#A8AAC2"/>
<line x1="279.5" y1="165" x2="279.5" y2="1" stroke="#A8AAC2"/>
<line x1="326.5" y1="165" x2="326.5" y2="1" stroke="#A8AAC2"/>
<line x1="373.5" y1="165" x2="373.5" y2="1" stroke="#A8AAC2"/>
<line x1="420.5" y1="165" x2="420.5" y2="1" stroke="#A8AAC2"/>
<line x1="467.5" y1="165" x2="467.5" y2="1" stroke="#A8AAC2"/>
<line x1="514.5" y1="165" x2="514.5" y2="1" stroke="#A8AAC2"/>
<line x1="561.5" y1="165" x2="561.5" y2="1" stroke="#A8AAC2"/>
<line x1="608.5" y1="165" x2="608.5" y2="1" stroke="#A8AAC2"/>
<line x1="655.5" y1="165" x2="655.5" y2="1" stroke="#A8AAC2"/>
<line x1="702.5" y1="165" x2="702.5" y2="1" stroke="#A8AAC2"/>
<line x1="749.5" y1="165" x2="749.5" y2="1" stroke="#A8AAC2"/>
<line x1="796.5" y1="165" x2="796.5" y2="1" stroke="#A8AAC2"/>
<line x1="843.5" y1="165" x2="843.5" y2="1" stroke="#A8AAC2"/>
<line x1="890.5" y1="165" x2="890.5" y2="1" stroke="#A8AAC2"/>
<line x1="937.5" y1="165" x2="937.5" y2="1" stroke="#A8AAC2"/>
<line x1="984.5" y1="165" x2="984.5" y2="1" stroke="#A8AAC2"/>
<line x1="1031.5" y1="165" x2="1031.5" y2="1" stroke="#A8AAC2"/>
<line x1="1078.5" y1="165" x2="1078.5" y2="1" stroke="#A8AAC2"/>
<line x1="1125.5" y1="165" x2="1125.5" y2="1" stroke="#A8AAC2"/>
<line x1="1172.5" y1="165" x2="1172.5" y2="1" stroke="#A8AAC2"/>
<line x1="1219.5" y1="165" x2="1219.5" y2="1" stroke="#A8AAC2"/>
<line x1="1250.5" y1="165" x2="1250.5" y2="1" stroke="#A8AAC2"/>
</svg>
