<svg width="57" height="54" viewBox="0 0 57 54" fill="none" xmlns="http://www.w3.org/2000/svg">
<path d="M36.8674 51.81C36.3763 52.0377 36.1629 52.6198 36.3905 53.1109C36.6182 53.602 37.2003 53.8153 37.6914 53.5877C38.1824 53.3601 38.3958 52.7779 38.1682 52.2869C37.9406 51.7958 37.3584 51.5824 36.8674 51.81Z" fill="#EE3E54"/>
<path d="M32.8919 6.85174C32.4199 7.07052 32.2162 7.63292 32.4366 8.10849C32.6571 8.58407 33.2179 8.79206 33.6899 8.57327C34.1619 8.35449 34.3656 7.79209 34.1452 7.31652C33.9247 6.84095 33.3639 6.63296 32.8919 6.85174ZM1.70854 13.4635C0.764144 13.9013 0.356903 15.0254 0.797995 15.977C1.23909 16.9286 2.36013 17.3444 3.30453 16.9066C4.24892 16.4688 4.65616 15.3447 4.21507 14.3931C3.77398 13.4415 2.65293 13.0258 1.70854 13.4635Z" fill="#FBCD59"/>
<path d="M53.5695 33.6083C53.1275 33.8132 52.9539 34.3769 53.1815 34.868C53.4092 35.359 53.9515 35.5909 54.3935 35.386C54.8355 35.1811 55.0091 34.6174 54.7814 34.1263C54.5538 33.6353 54.0115 33.4034 53.5695 33.6083Z" fill="#EE3E54"/>
<path d="M24.0236 10.0887C23.4353 10.3614 23.1787 11.0614 23.4514 11.6497C23.7242 12.2381 24.4241 12.4946 25.0125 12.2219C25.6008 11.9492 25.8574 11.2492 25.5846 10.6609C25.3119 10.0726 24.612 9.816 24.0236 10.0887Z" fill="white"/>
<path d="M51.754 23.4652C51.5581 23.556 51.4909 23.8295 51.6044 24.0744C51.718 24.3193 51.9701 24.4448 52.166 24.354C52.3619 24.2632 52.429 23.9897 52.3155 23.7448C52.202 23.4999 51.9499 23.3744 51.754 23.4652Z" fill="#F1BC19"/>
<path d="M42.1582 4.99988C41.6072 4.99988 41.1582 5.22438 41.1582 5.49988C41.1582 5.77538 41.6072 5.99988 42.1582 5.99988C42.7092 5.99988 43.1582 5.77538 43.1582 5.49988C43.1582 5.22438 42.7092 4.99988 42.1582 4.99988Z" fill="#F1BC19"/>
<path d="M7.1582 31.9999C6.0527 31.9999 5.1582 33.118 5.1582 34.4999C5.1582 35.8818 6.0527 36.9999 7.1582 36.9999C8.2637 36.9999 9.1582 35.8818 9.1582 34.4999C9.1582 33.118 8.2637 31.9999 7.1582 31.9999Z" fill="#F1BC19"/>
<path d="M46.6582 9.99988C45.8295 9.99988 45.1582 10.4474 45.1582 10.9999C45.1582 11.5524 45.8295 11.9999 46.6582 11.9999C47.487 11.9999 48.1582 11.5524 48.1582 10.9999C48.1582 10.4474 47.487 9.99988 46.6582 9.99988Z" fill="#EE3E54"/>
<path d="M43.6582 14.9999C43.3827 14.9999 43.1582 15.2244 43.1582 15.4999C43.1582 15.7754 43.3827 15.9999 43.6582 15.9999C43.9337 15.9999 44.1582 15.7754 44.1582 15.4999C44.1582 15.2244 43.9337 14.9999 43.6582 14.9999Z" fill="white"/>
<path d="M10.1887 41.2088C10.1887 41.0346 10.2567 40.8714 10.38 40.749L19.3443 31.7949C19.5993 31.5399 20.0141 31.5399 20.2691 31.7949L21.9726 33.4966C22.0958 33.6199 22.1638 33.7831 22.1638 33.9573C22.1638 34.1316 22.0958 34.2948 21.9726 34.4172L17.13 39.2538L36.0115 39.2538C38.0575 39.2538 39.7219 37.6515 39.7219 35.6837C39.7219 33.7159 38.0575 32.1136 36.0115 32.1136L31.2642 32.1136C26.9903 32.1136 23.5715 28.7586 23.5715 24.6334C23.5715 20.5083 26.9903 17.1532 31.1919 17.1532L49.2226 17.1532L44.3808 12.3175C44.2576 12.1942 44.1896 12.031 44.1896 11.8568C44.1896 11.6834 44.2576 11.5202 44.3808 11.3961L46.0843 9.69431C46.3393 9.4393 46.7541 9.4393 47.0091 9.69431L55.9743 18.6476C56.0975 18.7708 56.1655 18.934 56.1655 19.1083C56.1655 19.2825 56.0975 19.4458 55.9743 19.5682L47.0091 28.5223C46.7541 28.7773 46.3393 28.7773 46.0843 28.5223L44.3808 26.8205C44.2576 26.6973 44.1896 26.5341 44.1896 26.3598C44.1896 26.1856 44.2576 26.0224 44.3808 25.9L49.2234 21.0633L31.1928 21.0633C29.1468 21.0633 27.4824 22.6656 27.4824 24.6334C27.4824 26.6012 29.1468 28.2035 31.1928 28.2035L36.0124 28.2035C40.214 28.2035 43.6328 31.5586 43.6328 35.6837C43.6328 39.8089 40.2149 43.1639 36.0124 43.1639L17.1317 43.1639L21.9734 47.9997C22.0967 48.1229 22.1647 48.2861 22.1647 48.4604C22.1647 48.6346 22.0967 48.7978 21.9734 48.9202L20.27 50.6228C20.015 50.8778 19.6002 50.8778 19.3452 50.6228L10.38 41.6696C10.2567 41.5463 10.1887 41.3831 10.1887 41.2088Z" fill="#F4989E"/>
<path d="M55.5697 19.1089C55.5697 19.1318 55.5578 19.1437 55.5527 19.1488L46.5884 28.1021C46.5655 28.125 46.5272 28.125 46.5043 28.1021L44.8008 26.4003C44.7957 26.3952 44.7838 26.3833 44.7838 26.3604C44.7838 26.3374 44.7957 26.3255 44.8008 26.3204L48.6259 22.5004L50.66 20.4689L47.7844 20.4689L31.1911 20.4689C28.817 20.4689 26.8858 22.3372 26.8858 24.634C26.8858 26.9308 28.817 28.7991 31.1911 28.7991L31.2642 28.7991L35.0893 28.7991L36.0116 28.7991C39.8851 28.7991 43.037 31.8881 43.037 35.6843C43.037 39.4805 39.8851 42.5694 36.0116 42.5694L18.5683 42.5694L15.6927 42.5694L17.7276 44.6018L21.5527 48.4218C21.5578 48.4269 21.5697 48.4388 21.5697 48.4618C21.5697 48.4847 21.5578 48.4966 21.5527 48.5017L19.8493 50.2035C19.8264 50.2264 19.7881 50.2264 19.7652 50.2035L10.8 41.2494C10.7949 41.2443 10.783 41.2324 10.783 41.2094C10.783 41.1865 10.7949 41.1746 10.8 41.1695L19.7651 32.2162C19.7881 32.1932 19.8263 32.1932 19.8493 32.2162L21.5527 33.9179C21.5578 33.923 21.5697 33.9349 21.5697 33.9579C21.5697 33.9808 21.5578 33.9927 21.5527 33.9978L17.7276 37.8178L15.6927 39.8502L18.5683 39.8502L36.0116 39.8502C38.3849 39.8502 40.3161 37.9819 40.3161 35.6851C40.3161 33.3884 38.3849 31.52 36.0116 31.52L35.0893 31.52L31.2642 31.52L31.192 31.52C27.3184 31.52 24.1666 28.431 24.1666 24.6348C24.1666 20.8387 27.3184 17.7497 31.192 17.7497L47.7852 17.7497L50.6609 17.7497L48.6259 15.7173L44.8008 11.8973C44.7957 11.8922 44.7838 11.8803 44.7838 11.8573C44.7838 11.8344 44.7957 11.8225 44.8008 11.8174L46.5043 10.1156C46.5272 10.0927 46.5655 10.0927 46.5884 10.1156L55.5527 19.0689C55.5587 19.074 55.5697 19.0859 55.5697 19.1089ZM56.7598 19.1089C56.7598 18.7901 56.6382 18.4705 56.3943 18.2274L47.4299 9.27411C46.942 8.78705 46.1515 8.78705 45.6636 9.27411L43.9601 10.9759C43.7162 11.219 43.5946 11.5386 43.5946 11.8573C43.5946 12.1761 43.7162 12.4957 43.9601 12.7388L47.7852 16.5588L31.192 16.5588C26.6614 16.5588 22.9765 20.1816 22.9765 24.634C22.9765 29.0864 26.6614 32.7092 31.192 32.7092L31.2642 32.7092L35.0893 32.7092L36.0116 32.7092C37.7295 32.7092 39.1269 34.0437 39.1269 35.6843C39.1269 37.3248 37.7295 38.6593 36.0116 38.6593L18.5683 38.6593L22.3934 34.8394C22.6374 34.5962 22.7589 34.2766 22.7589 33.9579C22.7589 33.6391 22.6374 33.3195 22.3934 33.0764L20.69 31.3747C20.2021 30.8876 19.4115 30.8876 18.9236 31.3747L9.9593 40.3279C9.71535 40.571 9.59379 40.8907 9.59379 41.2094C9.59379 41.5282 9.71535 41.8478 9.9593 42.0909L18.9236 51.0442C19.4115 51.5312 20.2021 51.5312 20.69 51.0442L22.3934 49.3424C22.6374 49.0993 22.7589 48.7797 22.7589 48.4609C22.7589 48.1422 22.6374 47.8226 22.3934 47.5795L18.5683 43.7595L36.0116 43.7595C40.5422 43.7595 44.2271 40.1367 44.2271 35.6843C44.2271 31.2319 40.5422 27.6091 36.0116 27.6091L35.0893 27.6091L31.2642 27.6091L31.192 27.6091C29.4741 27.6091 28.0767 26.2745 28.0767 24.634C28.0767 22.9935 29.4741 21.6589 31.192 21.6589L47.7852 21.6589L43.9602 25.4789C43.7162 25.722 43.5946 26.0416 43.5946 26.3604C43.5946 26.6791 43.7162 26.9988 43.9602 27.2419L45.6636 28.9436C46.1515 29.4307 46.942 29.4307 47.4299 28.9436L56.3943 19.9903C56.6382 19.7472 56.7598 19.4276 56.7598 19.1089Z" fill="#472B29"/>
<path d="M46.36 33.9999L47.1582 32.5973L13.4233 10.9999L12.1582 13.2659L46.36 33.9999Z" fill="#FED5B3"/>
<path d="M47.104 33.9999C47.1784 33.9999 47.2506 33.9623 47.2921 33.8937L48.1259 32.5181C48.1563 32.4677 48.166 32.4075 48.1519 32.35C48.1378 32.2925 48.1016 32.2434 48.051 32.2133L12.8132 11.0314C12.7634 11.0014 12.703 10.9921 12.6462 11.0067C12.5894 11.0208 12.541 11.0575 12.5106 11.108L11.1891 13.3304C11.1592 13.3817 11.1504 13.4427 11.1654 13.5003C11.1803 13.5578 11.2182 13.6069 11.2697 13.6361L46.9956 33.9711C47.0295 33.9906 47.067 33.9999 47.104 33.9999ZM47.6343 32.4783L47.0273 33.4805L11.6834 13.3627L12.7762 11.5248L47.6343 32.4783Z" fill="#1F212B"/>
<path d="M22.1582 23.9999C22.1582 23.9999 22.1582 34.5845 22.1582 36.2247C22.1582 39.9663 27.0832 42.9999 33.1582 42.9999C39.2332 42.9999 44.1582 39.9663 44.1582 36.2247C44.1582 32.4831 44.1582 23.9999 44.1582 23.9999H22.1582Z" fill="black"/>
<path d="M33.6582 42.9999C39.9993 42.9999 45.1582 39.8356 45.1582 35.9461V24.4203C45.1582 24.1882 44.9642 23.9999 44.7242 23.9999H22.5922C22.3522 23.9999 22.1582 24.1882 22.1582 24.4203V35.9461C22.1582 39.8356 27.3171 42.9999 33.6582 42.9999ZM44.2903 24.8407V35.9461C44.2903 39.3719 39.521 42.1591 33.6582 42.1591C27.7954 42.1591 23.0261 39.3719 23.0261 35.9461V24.8407H44.2903Z" fill="#1F212B"/>
<path d="M33.1582 16.9999C34.6027 16.9999 36.0331 17.1809 37.3677 17.5327C38.7023 17.8845 39.9149 18.4001 40.9364 19.0501C41.9578 19.7001 42.7681 20.4718 43.3209 21.3211C43.8737 22.1704 44.1582 23.0806 44.1582 23.9999C44.1582 24.9191 43.8737 25.8294 43.3209 26.6787C42.7681 27.5279 41.9578 28.2996 40.9364 28.9496C39.9149 29.5996 38.7023 30.1153 37.3677 30.467C36.0331 30.8188 34.6027 30.9999 33.1582 30.9999C31.7137 30.9999 30.2833 30.8188 28.9487 30.467C27.6141 30.1153 26.4015 29.5996 25.38 28.9496C24.3586 28.2996 23.5483 27.5279 22.9955 26.6787C22.4427 25.8294 22.1582 24.9191 22.1582 23.9999C22.1582 23.0806 22.4427 22.1704 22.9955 21.3211C23.5483 20.4718 24.3586 19.7001 25.38 19.0501C26.4015 18.4001 27.6141 17.8845 28.9487 17.5327C30.2833 17.1809 31.7137 16.9999 33.1582 16.9999V16.9999Z" fill="#FEFDEF"/>
<path d="M33.6582 30.9999C39.9993 30.9999 45.1582 27.8596 45.1582 23.9999C45.1582 20.1401 39.9993 16.9999 33.6582 16.9999C27.3171 16.9999 22.1582 20.1401 22.1582 23.9999C22.1582 27.8596 27.3171 30.9999 33.6582 30.9999ZM33.6582 17.8484C39.521 17.8484 44.2903 20.6081 44.2903 23.9999C44.2903 27.3917 39.521 30.1514 33.6582 30.1514C27.7954 30.1514 23.0261 27.3917 23.0261 23.9999C23.0261 20.6081 27.7954 17.8484 33.6582 17.8484Z" fill="#1F212B"/>
<path d="M25.3836 24.3672C25.3536 24.233 25.3364 24.0996 25.3364 23.9666C25.3364 21.9607 28.8215 19.7168 33.4852 19.7168C38.1489 19.7168 41.634 21.9603 41.634 23.9666C41.634 25.9729 38.1489 28.216 33.4852 28.216C32.5756 28.216 31.7148 28.1268 30.9128 27.9741L30.8767 28.1881C30.2609 28.0702 29.6776 27.9141 29.1398 27.7254L29.2028 27.5199C28.8944 27.4123 28.5964 27.2973 28.318 27.1708L28.2297 27.3647C26.5369 26.5884 25.4123 25.4819 25.17 24.4011L25.3836 24.3672Z" fill="#F4CCCB"/>
<path d="M33.4862 21.7826C36.4318 21.7826 38.6328 22.9148 38.6328 23.927C38.6328 24.9392 36.4318 26.0714 33.4862 26.0714C32.4817 26.0714 31.5661 25.9389 30.7928 25.7253L30.7135 25.9239C29.1905 25.498 28.1251 24.7428 28.1251 23.927H28.3396C28.3396 22.9148 30.5406 21.7826 33.4862 21.7826Z" fill="#F69272"/>
<path d="M33.4861 26.2861C36.3421 26.2861 38.8472 25.1839 38.8472 23.9272C38.8472 22.6706 36.3421 21.5684 33.4861 21.5684C30.6302 21.5684 28.125 22.6706 28.125 23.9272C28.125 24.0456 28.2211 24.1417 28.3395 24.1417C28.4579 24.1417 28.5539 24.0456 28.5539 23.9272C28.5539 23.1402 30.4749 21.9972 33.4861 21.9972C36.4973 21.9972 38.4183 23.1402 38.4183 23.9272C38.4183 24.7142 36.4973 25.8572 33.4861 25.8572C32.5533 25.8572 31.6312 25.7367 30.8193 25.5085C30.7048 25.4776 30.5873 25.5433 30.5551 25.6569C30.5234 25.771 30.5894 25.8894 30.7039 25.9215C31.5523 26.16 32.5143 26.2861 33.4861 26.2861Z" fill="#1F212B"/>
<path d="M33.4864 28.4304C38.2731 28.4304 41.8496 26.0737 41.8496 23.9666C41.8496 21.859 38.2731 19.5023 33.4864 19.5023C28.6996 19.5023 25.1231 21.859 25.1231 23.9666C25.1231 24.106 25.1394 24.2522 25.1711 24.4015C25.1964 24.5173 25.3092 24.5919 25.4263 24.5657C25.5421 24.5409 25.6155 24.4268 25.591 24.311C25.5648 24.1913 25.552 24.0755 25.552 23.9666C25.552 22.0619 28.9453 19.9312 33.4864 19.9312C38.0274 19.9312 41.4207 22.0615 41.4207 23.9666C41.4207 25.8713 38.0274 28.0015 33.4864 28.0015C32.6307 28.0015 31.7785 27.9222 30.9529 27.7661C30.8384 27.7438 30.7243 27.8201 30.7025 27.9368C30.6802 28.053 30.7569 28.1654 30.8732 28.1872C31.7249 28.3485 32.6037 28.4304 33.4864 28.4304ZM29.1975 27.7331C29.2863 27.7331 29.3691 27.6777 29.4004 27.5894C29.4394 27.4774 29.3798 27.3552 29.2678 27.3162C28.9556 27.2077 28.6811 27.0992 28.4281 26.9846C28.32 26.9362 28.1931 26.9838 28.1442 27.0919C28.0957 27.1999 28.1433 27.3269 28.2514 27.3758C28.516 27.4954 28.8025 27.6082 29.1272 27.7215C29.1503 27.7292 29.1739 27.7331 29.1975 27.7331Z" fill="#1F212B"/>
<path d="M47.0021 42.7954L47.6399 41.4041L10.5413 23.4982L9.46913 25.8206L47.0021 42.7954Z" fill="#FED5B3"/>
<path d="M47.0033 43.0103C47.0843 43.0103 47.162 42.964 47.198 42.885L47.8357 41.4933C47.8846 41.3869 47.8396 41.2613 47.7345 41.2107L10.636 23.3047C10.5836 23.2798 10.5245 23.2764 10.47 23.2957C10.416 23.315 10.3718 23.3553 10.3478 23.4077L9.27554 25.7301C9.25153 25.782 9.24938 25.8411 9.26911 25.8948C9.28927 25.9484 9.33001 25.9917 9.38191 26.0153L46.9149 42.991C46.9432 43.0038 46.9732 43.0103 47.0033 43.0103ZM47.3584 41.5057L46.8973 42.5123L9.75547 25.7142L10.6458 23.7859L47.3584 41.5057Z" fill="#1F212B"/>
</svg>
