<svg width="181" height="165" viewBox="0 0 181 165" fill="none" xmlns="http://www.w3.org/2000/svg">
<path d="M9.08631 90.5809C44.7843 101.343 129.007 86.2309 136.835 71.3908C143.78 58.25 131.428 41.3482 118.035 41.0084C117.538 43.0701 115.977 45.7436 114.778 46.967C114.619 47.1709 114.348 47.2163 114.144 47.0803C114.009 46.9897 113.941 46.8084 113.963 46.6498C114.122 44.9053 114.099 43.1834 113.896 41.4388C113.896 41.4388 110.774 4.66725 70.0535 4.50866C46.9561 4.41803 36.0747 21.7276 32.048 30.3371L32.0253 30.3598C35.8711 31.5606 38.2917 34.1434 39.8527 36.2731C40.1694 36.6583 40.1015 37.2474 39.7169 37.5646C39.4455 37.7911 39.0609 37.8364 38.7442 37.6779C34.9662 35.956 30.2156 35.3442 29.9893 35.3216V35.3442C-2.81304 37.9497 -6.00277 79.5245 9.08631 90.5809Z" fill="#F5C4B9"/>
<path d="M39.0836 84.5091C40.6219 84.1466 42.0924 83.4669 43.3592 82.5153C44.6261 81.5637 45.712 80.3856 46.5716 79.0262C47.4312 77.6894 48.0873 76.2168 48.4945 74.6761C49.2863 71.5722 49.1732 68.3323 48.2004 65.2963C47.7027 63.7783 46.9788 62.3736 46.0513 61.0822C45.1238 59.7908 43.9927 58.6806 42.6806 57.7743C41.3911 56.8907 39.9206 56.2563 38.3823 55.9392C38.1787 55.8938 37.9751 56.0298 37.9299 56.2337C37.8846 56.4149 37.9977 56.6188 38.1787 56.6868C40.8934 57.661 43.2235 59.5189 44.7618 61.9658C46.3001 64.3674 47.1371 67.1541 47.1824 70.0315C47.2955 72.8863 46.5942 75.6957 45.1464 78.1652C43.7212 80.6121 41.5042 82.6059 38.7895 83.6028C38.5407 83.7161 38.4502 84.0106 38.5633 84.2372C38.6764 84.4411 38.88 84.5317 39.0836 84.5091Z" fill="#10294C"/>
<path d="M121.926 63.9369C119.615 63.9369 117.741 62.0603 117.741 59.7454C117.741 57.4305 119.615 55.554 121.926 55.554C124.238 55.554 126.111 57.4305 126.111 59.7454C126.111 62.0603 124.238 63.9369 121.926 63.9369Z" fill="#10294C"/>
<path d="M25.5102 77.2135C23.1988 77.2135 21.325 75.3369 21.325 73.022C21.325 70.7071 23.1988 68.8306 25.5102 68.8306C27.8216 68.8306 29.6953 70.7071 29.6953 73.022C29.6953 75.3369 27.8216 77.2135 25.5102 77.2135Z" fill="#10294C"/>
<path d="M119.981 19.2807C117.495 19.2807 115.479 17.2621 115.479 14.7721C115.479 12.282 117.495 10.2634 119.981 10.2634C122.467 10.2634 124.483 12.282 124.483 14.7721C124.483 17.2621 122.467 19.2807 119.981 19.2807Z" fill="#00ACDC"/>
<path d="M108.24 5.39226C106.754 5.39226 105.548 4.18516 105.548 2.69613C105.548 1.2071 106.754 0 108.24 0C109.727 0 110.932 1.2071 110.932 2.69613C110.932 4.18516 109.727 5.39226 108.24 5.39226Z" fill="#00ACDC"/>
<path d="M16.1896 33.0558C14.7028 33.0558 13.4976 31.8487 13.4976 30.3597C13.4976 28.8707 14.7028 27.6636 16.1896 27.6636C17.6764 27.6636 18.8817 28.8707 18.8817 30.3597C18.8817 31.8487 17.6764 33.0558 16.1896 33.0558Z" fill="#00ACDC"/>
<path d="M121.791 56.6868C121.836 56.6641 121.881 56.6415 121.927 56.6188C121.972 56.5962 122.017 56.5962 122.062 56.5735C122.153 56.5509 122.266 56.5509 122.357 56.5735C122.402 56.5735 122.447 56.5962 122.492 56.6188C122.537 56.6415 122.583 56.6641 122.628 56.6868C122.673 56.7095 122.718 56.7548 122.741 56.7774C122.877 56.9134 122.967 57.1173 122.967 57.3212C122.967 57.3665 122.967 57.4118 122.945 57.4798C122.945 57.5251 122.922 57.5704 122.899 57.6157C122.877 57.661 122.854 57.7063 122.832 57.7516C122.809 57.797 122.764 57.8423 122.741 57.8649C122.718 57.9102 122.673 57.9329 122.628 57.9556C122.583 57.9782 122.537 58.0009 122.492 58.0235C122.447 58.0462 122.402 58.0462 122.357 58.0688C122.266 58.0915 122.153 58.0915 122.062 58.0688C122.017 58.0688 121.972 58.0462 121.927 58.0235C121.881 58.0009 121.836 57.9782 121.791 57.9556C121.746 57.9329 121.7 57.8876 121.678 57.8649C121.542 57.729 121.452 57.5251 121.452 57.3212C121.452 57.1173 121.542 56.9134 121.678 56.7774C121.723 56.7548 121.746 56.7095 121.791 56.6868Z" fill="#F8F9F8"/>
<path d="M123.601 58.5899C123.985 58.386 124.438 58.5446 124.641 58.9298C124.732 59.111 124.8 59.3149 124.845 59.5188C124.913 59.836 124.913 60.1532 124.868 60.4704C124.8 60.8329 124.483 61.1275 124.098 61.1275C124.053 61.1275 124.008 61.1275 123.963 61.1275C123.533 61.0595 123.261 60.6517 123.329 60.2439C123.352 60.1306 123.352 59.9946 123.307 59.8813C123.284 59.8134 123.261 59.7228 123.216 59.6548C123.058 59.2696 123.216 58.7938 123.601 58.5899C123.601 58.5899 123.578 58.6126 123.601 58.5899Z" fill="#F8F9F8"/>
<path d="M25.3969 69.9408C25.4421 69.9182 25.4874 69.8955 25.5326 69.8728C25.5779 69.8502 25.6231 69.8502 25.6684 69.8275C25.7588 69.8049 25.872 69.8049 25.9624 69.8275C26.0077 69.8275 26.0529 69.8502 26.0982 69.8728C26.1434 69.8955 26.1887 69.9182 26.2339 69.9408C26.2792 69.9635 26.3244 70.0088 26.347 70.0314C26.4828 70.1674 26.5732 70.3713 26.5732 70.5752C26.5732 70.6205 26.5733 70.6658 26.5506 70.7338C26.5506 70.7791 26.528 70.8244 26.5054 70.8697C26.4828 70.915 26.4601 70.9604 26.4375 71.0057C26.4149 71.051 26.3696 71.0963 26.347 71.119C26.3244 71.1643 26.2792 71.1869 26.2339 71.2096C26.1887 71.2322 26.1434 71.2549 26.0982 71.2776C26.0529 71.3002 26.0077 71.3002 25.9624 71.3229C25.872 71.3455 25.7588 71.3455 25.6684 71.3229C25.6231 71.3229 25.5779 71.3002 25.5326 71.2776C25.4874 71.2549 25.4421 71.2322 25.3969 71.2096C25.3516 71.1869 25.3064 71.1416 25.2838 71.119C25.148 70.983 25.0575 70.7791 25.0575 70.5752C25.0575 70.3713 25.148 70.1674 25.2838 70.0314C25.3064 70.0088 25.3516 69.9635 25.3969 69.9408Z" fill="#F8F9F8"/>
<path d="M27.1845 71.8665C27.5691 71.6626 28.0215 71.8212 28.2251 72.2064C28.3156 72.3876 28.3835 72.5915 28.4287 72.7955C28.4966 73.1126 28.4966 73.4298 28.4514 73.747C28.3835 74.1095 28.0668 74.3814 27.7048 74.4041C27.6596 74.4041 27.6143 74.4041 27.5691 74.4041C27.1393 74.3361 26.8678 73.9283 26.9357 73.5205C26.9583 73.4072 26.9583 73.2712 26.9357 73.158C26.913 73.09 26.8904 72.9994 26.8452 72.9314C26.6642 72.5236 26.7999 72.0704 27.1845 71.8665Z" fill="#F8F9F8"/>
<path d="M98.5577 76.6245C87.7894 68.4455 96.1371 54.6703 96.1371 54.6703C40.8481 42.7303 42.4317 100.844 98.5803 76.6245H98.5577Z" fill="#10294C"/>
<path d="M78.1519 53.1749L82.8121 55.1687C84.4183 55.8484 85.5268 57.3664 85.7077 59.1109L86.0244 62.1922C86.1149 64.0501 85.5494 64.5938 84.0563 65.5681C83.8527 65.704 83.6717 65.8626 83.5134 66.0438C82.6763 67.086 83.1288 68.4681 81.9751 68.9665L81.8393 69.0119L79.7581 69.7595L79.939 71.6174L80.0295 72.5916C80.1653 74.0189 79.3282 75.3557 77.9709 75.8315L64.1939 80.7479L61.7281 79.7057C49.7835 72.6142 55.145 54.9195 78.1519 53.1749Z" fill="#FDB813"/>
<path d="M60.6876 59.5415C63.4476 59.5415 65.5967 60.4251 65.6872 61.6486C65.7777 63.008 63.2666 64.2994 60.0768 64.5033C59.0136 64.5939 57.9503 64.5259 56.9097 64.322C57.8372 62.5095 59.1267 60.8782 60.6876 59.5415Z" fill="#F04E23"/>
<path d="M58.7427 61.5126C59.1499 61.3993 59.5571 61.3087 59.9869 61.286C61.1859 61.1954 62.1813 61.4673 62.2039 61.8751C62.2265 62.2829 61.2764 62.6907 60.0774 62.7587C59.1499 62.8267 58.3581 62.6681 58.0188 62.4188C58.2676 62.1243 58.4938 61.8071 58.7427 61.5126Z" fill="#FDB813"/>
<path d="M68.3096 64.0716C68.2852 63.7221 68.9221 63.3927 69.7323 63.3359C70.5425 63.2791 71.219 63.5164 71.2435 63.8659C71.2679 64.2154 70.6309 64.5448 69.8208 64.6016C69.0106 64.6584 68.334 64.4211 68.3096 64.0716Z" fill="#F04E23"/>
<path d="M76.1393 56.4602L79.7815 55.1914L81.071 55.7352L77.4288 57.0039L76.1393 56.4602Z" fill="#10294C"/>
<path d="M74.171 57.1625L75.4604 57.7062L69.375 59.8586L68.0856 59.3148L74.171 57.1625Z" fill="#10294C"/>
<path d="M71.4112 55.9616L76.9537 54.0132L78.2432 54.5343L72.6781 56.5054L71.4112 55.9616Z" fill="#10294C"/>
<path d="M69.4424 56.6641L70.7318 57.1852L66.5241 58.6805L65.2572 58.1367L69.4424 56.6641Z" fill="#10294C"/>
<path d="M75.6415 60.5156C76.3655 60.4023 77.0894 60.2437 77.7907 60.0398C78.4919 59.8359 79.1932 59.6093 79.8719 59.3601C80.5506 59.1109 81.2292 58.839 81.9079 58.5218C82.5866 58.2273 83.2426 57.8874 83.8761 57.5023C84.0118 57.4116 84.057 57.2304 83.9665 57.0944C83.8987 57.0038 83.7856 56.9358 83.6725 56.9585C82.9485 57.0718 82.2246 57.2077 81.5007 57.4116C80.7994 57.5929 80.0981 57.8194 79.3968 58.046C78.6956 58.2726 78.0395 58.5445 77.3382 58.839C76.6595 59.1335 76.0035 59.4507 75.3701 59.8359C75.1891 59.9265 75.1212 60.1531 75.2117 60.3343C75.3022 60.4703 75.4606 60.5382 75.6415 60.5156Z" fill="#F04E23"/>
<path d="M72.8815 74.9253C73.2661 74.9253 73.6506 74.88 74.0352 74.7893C74.3972 74.6987 74.7591 74.6081 75.1211 74.4722C75.4831 74.3362 75.8224 74.1776 76.1617 73.9964C76.5011 73.8151 76.8404 73.5886 77.1345 73.3393C77.2702 73.226 77.2702 73.0221 77.1571 72.9088C77.0892 72.8409 77.0214 72.7956 76.9309 72.7956C76.5463 72.7729 76.1391 72.8182 75.7771 72.8862C75.4152 72.9542 75.0306 73.0448 74.6913 73.1807C74.3293 73.294 73.99 73.4526 73.6506 73.6112C73.3113 73.7925 72.972 73.9964 72.6779 74.2456C72.5195 74.3815 72.4743 74.6081 72.61 74.7893C72.6553 74.88 72.7684 74.9253 72.8815 74.9253Z" fill="#F04E23"/>
<path d="M81.0031 61.7845C81.3424 61.8072 81.6818 61.7845 82.0211 61.7165C82.3378 61.6486 82.6545 61.5579 82.9486 61.4447C83.2653 61.3314 83.5594 61.1954 83.8309 61.0368C84.125 60.8782 84.3964 60.6743 84.6453 60.4251C84.781 60.3118 84.781 60.1079 84.6453 59.972C84.6 59.9267 84.5322 59.8813 84.4417 59.8813C84.1023 59.8587 83.763 59.8587 83.4237 59.9267C83.107 59.972 82.7903 60.0626 82.4735 60.1532C82.1568 60.2439 81.8627 60.3798 81.5686 60.5384C81.2746 60.697 80.9805 60.8782 80.7316 61.1275C80.5733 61.2861 80.5506 61.5353 80.709 61.6939C80.7995 61.7392 80.89 61.7845 81.0031 61.7845Z" fill="#F04E23"/>
<path d="M56.254 66.3158C56.8422 66.5197 57.4077 66.7009 57.9959 66.9275C58.6067 67.1541 59.2175 67.3806 59.8283 67.6072C60.4391 67.8338 61.0499 68.083 61.6607 68.3095C62.181 68.5134 62.7014 68.7174 63.2217 68.9439C63.9456 68.672 64.6695 68.4228 65.3934 68.1509C66.2078 67.8791 66.9996 67.5845 67.814 67.3353C68.2212 67.1994 68.6284 67.0861 69.0356 66.9501C69.4428 66.8142 69.85 66.7009 70.2572 66.5876C71.0716 66.3611 71.9086 66.1345 72.7457 65.9306C72.904 65.8853 73.0624 65.9986 73.085 66.1572C73.1076 66.2931 73.0624 66.429 72.9267 66.4744C72.1575 66.8595 71.3883 67.1994 70.5966 67.5392C70.212 67.7205 69.8048 67.8791 69.4202 68.0377C69.0356 68.1963 68.6284 68.3549 68.2438 68.5134C67.4521 68.8306 66.6603 69.1252 65.8459 69.4197C65.1446 69.6689 64.4433 69.9182 63.7194 70.1674C63.8551 70.7338 63.9456 71.2775 64.0361 71.844C64.1039 72.2518 64.1492 72.6596 64.1944 73.0674C64.9636 72.6596 65.7554 72.2971 66.5472 71.9799C67.3842 71.6401 68.2438 71.3002 69.1035 71.0057C69.9631 70.7111 70.8228 70.4393 71.705 70.19C72.5873 69.9408 73.4696 69.7142 74.3745 69.5556C74.5328 69.533 74.6912 69.6236 74.7138 69.7822C74.7364 69.9182 74.6686 70.0314 74.5555 70.0994C73.7637 70.5299 72.9267 70.9377 72.0896 71.3002C71.2526 71.6627 70.4156 72.0026 69.5559 72.3198C68.6963 72.6369 67.8366 72.9088 66.977 73.1807C66.0947 73.4526 65.2124 73.6791 64.3075 73.8604H64.2623C64.2623 73.951 64.2849 74.0643 64.2849 74.1549C64.3528 74.9253 64.3754 75.6729 64.3754 76.4432C64.398 77.2136 64.3528 77.9839 64.2849 78.7542C64.2623 78.8675 64.1944 78.9808 64.0813 79.0034C63.923 79.0488 63.7646 78.9581 63.7194 78.7995C63.5158 78.0519 63.3348 77.3042 63.2217 76.5565C63.0859 75.8089 62.9955 75.0385 62.9276 74.2909C62.8597 73.5432 62.7918 72.7729 62.7918 72.0026C62.7692 71.4135 62.7692 70.8471 62.8145 70.258C62.2715 70.0088 61.706 69.7822 61.163 69.533C60.5749 69.2611 59.9641 69.0119 59.3759 68.7174C58.7877 68.4228 58.1995 68.1736 57.6113 67.8791C57.1137 67.6525 56.6386 67.4033 56.1635 67.1541C56.1409 66.8369 56.1861 66.565 56.254 66.3158Z" fill="#F04E23"/>
<path d="M64.262 57.0038C65.6872 57.4343 67.1124 57.9327 68.4697 58.4991C69.3068 58.839 70.1212 59.2241 70.9129 59.6546C71.7273 60.0851 72.4965 60.5835 73.243 61.1499C74.0122 61.7163 74.6909 62.4187 75.2338 63.2343C75.5279 63.6648 75.7315 64.1633 75.8446 64.6617C75.9577 65.1828 75.9577 65.7266 75.8446 66.2477C75.822 66.3609 75.7994 66.4969 75.7541 66.6102C75.7315 66.6781 75.7089 66.7688 75.7089 66.8367C75.6862 66.9274 75.7089 67.018 75.7315 67.1086C75.7767 67.2446 76.0708 67.4711 76.4102 67.6297C77.0888 67.9696 78.0842 68.1282 78.8986 68.7852C79.0343 68.8985 79.0796 69.1024 79.0117 69.261C78.9212 69.4649 78.695 69.5555 78.4914 69.4649H78.4688C78.1068 69.3063 77.7222 69.193 77.3377 69.125C76.8852 69.0344 76.4328 68.9438 76.003 68.7852C75.7541 68.6946 75.5053 68.6039 75.279 68.4453C75.0076 68.2868 74.7587 68.0375 74.6004 67.7657C74.442 67.4485 74.3515 67.1086 74.3968 66.7461C74.4194 66.6102 74.442 66.4516 74.4646 66.3156C74.4873 66.2023 74.5099 66.1117 74.5325 66.0211C74.6004 65.6812 74.6004 65.3187 74.5099 64.9789C74.4194 64.6164 74.2837 64.2765 74.0801 63.982C73.8765 63.6422 73.6276 63.3476 73.3335 63.0531C73.1978 62.9171 73.0394 62.7585 72.8811 62.6226C72.7227 62.4867 72.5644 62.3507 72.406 62.2148C71.7273 61.6937 71.026 61.2179 70.2795 60.7874C69.533 60.357 68.7638 59.9491 67.972 59.5866C66.479 58.8843 64.918 58.2499 63.3571 57.6382C63.6512 57.3889 63.9453 57.185 64.262 57.0038Z" fill="#F04E23"/>
<path d="M61.2504 64.3371C61.2006 63.6131 62.5243 62.932 64.2069 62.816C65.8896 62.6999 67.294 63.1927 67.3438 63.9167C67.3936 64.6407 66.0699 65.3218 64.3873 65.4378C62.7046 65.5539 61.3002 65.0611 61.2504 64.3371Z" fill="#10294C"/>
<path d="M94.0331 66.2478C95.3 65.6587 94.7344 63.1438 92.9472 63.2571C91.1601 63.3704 90.685 67.8111 94.0331 66.2478Z" fill="#FDB813"/>
<path d="M99.4176 69.1931C100.594 67.9697 98.7842 66.4517 97.9245 67.7431C97.0875 69.0345 98.2186 70.4166 99.4176 69.1931Z" fill="#FDB813"/>
<path d="M89.5996 76.6018C90.8664 75.1065 89.9616 73.2033 87.4731 73.3846C84.9846 73.5432 86.7492 80.0003 89.5996 76.6018Z" fill="#FDB813"/>
<path d="M107.064 57.2758C105.933 56.8906 104.779 56.4828 103.648 56.1203L101.929 55.5992L101.069 55.3273C100.775 55.2367 100.481 55.1687 100.209 55.0781C99.0556 54.7609 97.8792 54.4437 96.7028 54.1718C96.1147 54.0359 95.5265 53.8999 94.9383 53.764L93.1738 53.4015C92.8797 53.3335 92.5856 53.2882 92.2915 53.2429L91.3866 53.107C90.7984 53.0163 90.1876 52.9031 89.5994 52.8351C88.4005 52.6992 87.2015 52.5179 85.9799 52.4499C84.7809 52.3366 83.5593 52.314 82.3377 52.2687H80.5053H80.0528L79.6004 52.2913L78.6955 52.3366C76.2523 52.4499 73.8317 52.7898 71.4563 53.3335C69.0584 53.8773 66.7283 54.7156 64.5113 55.8258C63.4028 56.3922 62.3395 57.0492 61.3442 57.7742L60.5976 58.3406C60.4845 58.4313 60.3488 58.5219 60.2357 58.6352L59.8963 58.9524C59.6701 59.1563 59.4213 59.3602 59.195 59.5867L58.539 60.2664C58.3128 60.493 58.1318 60.7422 57.9282 60.9915C57.7246 61.2407 57.521 61.4672 57.34 61.7391L56.7971 62.5094L56.2994 63.3251C55.666 64.4352 55.1909 65.636 54.8742 66.8822C54.5801 68.1509 54.4896 69.465 54.6027 70.7564C54.7158 72.0478 55.0551 73.3166 55.5981 74.4947C56.141 75.6729 56.8649 76.7377 57.7472 77.6893C58.177 78.1651 58.6295 78.5956 59.1272 79.0261C59.6249 79.4112 60.1452 79.7964 60.6655 80.1362C61.1858 80.4761 61.7514 80.7933 62.3169 81.0651C62.5884 81.2011 62.8825 81.3144 63.1766 81.4503C63.4707 81.5863 63.7421 81.6995 64.0362 81.8128L64.9185 82.13C65.2126 82.2433 65.5067 82.3113 65.8008 82.4019C66.0948 82.4925 66.3889 82.5831 66.7056 82.6511L67.6105 82.855C70.0311 83.3308 72.4743 83.5121 74.9402 83.4214C79.8266 83.2402 84.5999 82.2206 89.1922 80.7933C90.3233 80.4081 91.4771 80.0456 92.6082 79.6151C93.1738 79.4112 93.7393 79.2073 94.3049 78.9807L95.9789 78.3011L96.816 77.9612L97.6304 77.5987L99.2818 76.8737C100.368 76.3752 101.454 75.8315 102.539 75.3104C102.743 75.2198 102.811 74.9932 102.72 74.7893C102.63 74.5854 102.404 74.5174 102.2 74.608H102.177C101.092 75.0838 100.006 75.5596 98.8972 76.0354L97.2458 76.7151L96.4088 77.0549L95.5717 77.3721L93.8977 78.0065C93.3321 78.2104 92.7666 78.3917 92.201 78.5729C91.0699 78.9581 89.9388 79.2979 88.8077 79.6378C88.2421 79.819 87.6765 79.955 87.0884 80.0909C86.5228 80.2495 85.9572 80.4081 85.3691 80.5214L83.6271 80.9066L81.8852 81.2237C79.5551 81.6316 77.225 81.8581 74.8723 81.9034C72.5422 81.9488 70.2121 81.7448 67.9273 81.2691L67.0902 81.0878C66.8188 81.0198 66.5473 80.9292 66.2532 80.8612C65.9817 80.7933 65.6876 80.7026 65.4388 80.612L64.6244 80.3175C64.3529 80.2269 64.0815 80.1136 63.8326 79.9776C63.5838 79.8644 63.3123 79.7511 63.0635 79.6151C62.5658 79.3659 62.0681 79.0714 61.593 78.7542C61.1179 78.4596 60.6655 78.1198 60.2357 77.7573C59.8058 77.3948 59.4213 77.0096 59.0367 76.6018C58.2901 75.7862 57.6793 74.8573 57.2043 73.8604C56.2994 71.8213 56.1184 69.5556 56.6387 67.4033C56.9102 66.3157 57.3174 65.2735 57.8603 64.322L58.2901 63.597L58.7652 62.9173C58.9236 62.6907 59.1045 62.4641 59.2855 62.2602C59.4665 62.0336 59.6475 61.8297 59.8285 61.6258L60.4166 61.0141C60.6202 60.8102 60.8465 60.6289 61.0501 60.4477L61.3668 60.1532C61.4799 60.0625 61.593 59.9719 61.7061 59.8813L62.3848 59.3602C62.611 59.2016 62.8599 59.043 63.0861 58.8617C63.3123 58.7031 63.5611 58.5219 63.81 58.3859C64.3077 58.0914 64.7828 57.7969 65.3031 57.5477C67.3617 56.4828 69.5561 55.6898 71.8183 55.1461C74.1031 54.6023 76.4106 54.2625 78.7633 54.1039L79.6456 54.0585L80.0754 54.0359H80.5279L82.2924 54.0132C83.4688 54.0359 84.6451 54.0585 85.8215 54.1492C86.9979 54.1945 88.1742 54.3531 89.3506 54.4664C89.9388 54.5343 90.5269 54.625 91.1151 54.6929L91.9974 54.8062C92.2915 54.8515 92.5856 54.8968 92.8797 54.9422L94.6216 55.2367C95.2098 55.35 95.7753 55.4632 96.3635 55.5992C97.5399 55.8258 98.6936 56.1203 99.8473 56.3922C100.141 56.4601 100.436 56.5281 100.707 56.5961L101.567 56.8226L103.286 57.2984C104.417 57.6156 105.571 57.9781 106.702 58.318H106.77C107.019 58.3859 107.29 58.2273 107.358 57.9781C107.426 57.593 107.313 57.3437 107.064 57.2758Z" fill="#10294C"/>
<path d="M86.8615 106.282C65.3477 108.072 48.4715 116.115 49.1501 124.249C49.8288 132.383 67.7909 137.548 89.3047 135.758C110.796 133.968 127.695 125.925 127.016 117.792C126.337 109.658 108.353 104.492 86.8615 106.282ZM53.7877 124.181C53.6067 121.825 57.7692 118.766 61.977 116.749C68.5375 113.623 77.4959 111.471 87.2235 110.655C89.8703 110.428 92.5397 110.315 95.1187 110.315C112.266 110.315 122.152 115.141 122.424 118.494C122.627 120.85 118.442 123.909 114.235 125.925C107.674 129.052 98.7156 131.204 88.988 132.02C86.3412 132.247 83.6944 132.36 81.1155 132.36C63.9225 132.36 54.0592 127.534 53.7877 124.181Z" fill="white"/>
<path d="M49.1727 124.498C49.1727 124.407 49.1501 124.317 49.1501 124.226C49.1501 124.271 49.1501 124.317 49.1727 124.362C48.9691 120.193 52.7923 116.002 59.9862 112.581C67.0443 109.227 76.5683 106.894 86.8389 106.056C108.669 104.243 126.315 109.545 127.016 118.131C127.016 118.199 127.016 118.245 127.039 118.313C127.039 118.131 127.039 117.973 127.016 117.792C127.695 125.925 129.391 160.748 91.5669 164.555C53.1769 167.138 49.9192 133.493 49.1953 124.657C49.1953 124.634 49.1953 124.611 49.1953 124.589C49.1727 124.566 49.1727 124.521 49.1727 124.498ZM125.184 118.29C124.663 111.969 111.497 107.551 94.9377 107.551C92.3587 107.551 89.6893 107.664 86.9746 107.891C76.9303 108.729 67.6099 110.972 60.7553 114.257C54.2627 117.338 50.6884 121.077 50.9825 124.453C51.254 127.851 55.3938 130.932 62.2937 132.904C69.578 134.988 79.1473 135.69 89.1916 134.852C99.2359 134.014 108.556 131.771 115.411 128.485C121.903 125.382 125.478 121.689 125.184 118.29Z" fill="#F04E23"/>
<path d="M61.9772 116.772C57.7695 118.789 53.607 121.847 53.788 124.203C54.0594 127.534 63.9454 132.382 81.0931 132.382C83.672 132.382 86.3415 132.269 88.9657 132.043C98.6933 131.227 107.652 129.075 114.212 125.948C118.42 123.932 122.582 120.873 122.401 118.517C122.13 115.186 112.244 110.338 95.0963 110.338C92.5174 110.338 89.8479 110.451 87.2011 110.677C77.4961 111.47 68.5377 113.646 61.9772 116.772Z" fill="#10294C"/>
<path d="M89.7115 111.267L89.5758 111.312L90.0283 117.361L101.905 113.124L118.532 120.125L118.397 120.171L118.713 123.32C117.288 124.317 115.795 125.2 114.212 125.948C107.651 129.075 98.6926 131.227 88.965 132.043C86.3182 132.269 83.6714 132.382 81.0924 132.382C70.5731 132.382 62.8136 130.547 58.2891 128.395L57.0902 110.088L57.0223 110.066L73.0841 104.334L89.7115 111.267Z" fill="#FDB813"/>
<path d="M65.6644 120.329C66.0716 120.646 66.5015 120.918 66.9765 121.167C67.429 121.417 67.8814 121.621 68.3565 121.802C68.8316 121.983 69.3066 122.164 69.8043 122.3C70.302 122.459 70.7997 122.55 71.32 122.618C71.4784 122.64 71.6367 122.527 71.6593 122.346C71.682 122.232 71.6367 122.142 71.5462 122.074C71.139 121.757 70.7092 121.462 70.2568 121.213C69.8043 120.964 69.3519 120.737 68.8994 120.533C68.4244 120.329 67.9493 120.148 67.4742 119.989C66.9765 119.831 66.4788 119.717 65.9585 119.649C65.7549 119.627 65.5739 119.785 65.5513 119.989C65.5061 120.125 65.5513 120.239 65.6644 120.329Z" fill="#F04E23"/>
<path d="M83.9881 117.814C83.2868 118.131 82.5855 118.403 81.8616 118.675C81.1377 118.947 80.4138 119.174 79.6899 119.4C78.9433 119.627 78.1968 119.808 77.4502 119.921C77.2466 119.944 77.0657 119.831 77.0204 119.627C76.9978 119.468 77.0657 119.31 77.224 119.242C77.9027 118.856 78.5814 118.517 79.3053 118.222C80.0066 117.928 80.7305 117.656 81.4544 117.406C82.1783 117.157 82.9022 116.931 83.6488 116.727C84.3953 116.523 85.1418 116.342 85.911 116.228C86.0241 116.206 86.1372 116.274 86.2051 116.364C86.2956 116.5 86.2503 116.681 86.092 116.772C85.3907 117.157 84.6894 117.52 83.9881 117.814Z" fill="#F04E23"/>
<path d="M58.651 121.258C58.6963 121.054 58.8999 120.941 59.0808 120.986C60.031 121.235 60.9585 121.53 61.886 121.87C62.7909 122.21 63.7184 122.55 64.6007 122.957C65.5056 123.343 66.3879 123.75 67.2475 124.181C68.1298 124.611 68.9894 125.064 69.8265 125.586C69.9622 125.676 70.0074 125.857 69.9169 125.993C69.8491 126.107 69.7133 126.152 69.6002 126.129C68.9668 125.971 68.356 125.789 67.7678 125.586C67.1796 125.767 66.5688 125.903 65.958 126.039C65.3472 126.175 64.7138 126.288 64.103 126.401C63.4922 126.514 62.8588 126.605 62.248 126.696C61.6372 126.786 61.0037 126.877 60.3703 126.945H60.3251H60.2798C59.9179 126.968 59.6238 126.696 59.6012 126.333C59.5785 125.971 59.5785 125.608 59.5559 125.246C59.5333 124.883 59.5333 124.521 59.5333 124.158C59.5333 123.796 59.5333 123.433 59.5559 123.071C59.5559 122.753 59.5785 122.436 59.6238 122.096C59.3523 121.938 59.0582 121.779 58.7868 121.621C58.6736 121.575 58.6284 121.417 58.651 121.258ZM60.4834 123.025C60.5513 123.388 60.6192 123.728 60.687 124.09C60.7549 124.453 60.8001 124.793 60.8454 125.155C60.868 125.268 60.868 125.382 60.8906 125.518C61.2978 125.45 61.6824 125.404 62.0896 125.336C62.7004 125.246 63.3338 125.178 63.9673 125.11C64.6007 125.042 65.2115 124.974 65.8449 124.951H65.958C65.3472 124.725 64.7138 124.498 64.103 124.226C63.1981 123.864 62.3158 123.456 61.4336 123.048C61.0942 122.889 60.7323 122.708 60.3929 122.527C60.4156 122.685 60.4382 122.844 60.4834 123.025Z" fill="#F04E23"/>
<path d="M71.4553 113.804L82.6534 109.794L84.5536 110.609L73.3782 114.597L71.4553 113.804Z" fill="white"/>
<path d="M100.503 122.957L111.701 118.947L113.601 119.763L102.426 123.75L100.503 122.957Z" fill="white"/>
<path d="M78.1522 107.891L80.0751 108.684L73.4694 111.063L71.5465 110.247L78.1522 107.891Z" fill="white"/>
<path d="M66.863 111.924L69.6455 110.927L71.5458 111.72L68.7633 112.717L66.863 111.924Z" fill="white"/>
<path d="M70.8447 107.052L72.745 107.868L64.3973 110.859L62.4744 110.043L70.8447 107.052Z" fill="white"/>
<path d="M100.118 115.956C102.697 115.821 104.937 116.206 106.113 116.885L100.254 118.245L104.167 119.944C102.923 120.284 101.656 120.488 100.389 120.556C96.702 120.737 93.648 119.876 93.5801 118.585C93.4897 117.316 96.4306 116.138 100.118 115.956Z" fill="#00ACDC"/>
<path d="M100.232 118.267L106.091 116.908C106.588 117.202 106.882 117.542 106.905 117.95C106.95 118.743 105.842 119.491 104.123 120.012L100.232 118.267Z" fill="#10294C"/>
<path d="M80.9571 128.236L84.8933 126.832L86.1602 127.375L82.2465 128.757L80.9571 128.236Z" fill="#F04E23"/>
<path d="M78.9889 128.916L80.2784 129.46L74.4644 131.499L73.175 130.978L78.9889 128.916Z" fill="#F04E23"/>
<path d="M84.7125 131.318L90.5943 129.233L91.8838 129.777L85.9794 131.839L84.7125 131.318Z" fill="#F04E23"/>
<path d="M78.3102 131.34L87.7211 128.032L88.988 128.553L79.5771 131.861L78.3102 131.34Z" fill="#F04E23"/>
<path d="M80.6177 127.126L71.6819 130.321L70.3924 129.777L79.3509 126.605L80.6177 127.126Z" fill="#F04E23"/>
<path d="M58.6516 110.746C58.7195 110.564 58.9231 110.451 59.1041 110.519C60.3483 110.949 61.6152 111.425 62.8368 111.878L64.6918 112.603L66.5468 113.328C67.7684 113.827 69.0127 114.325 70.2343 114.824C71.3654 115.299 72.5191 115.775 73.6729 116.251C74.7814 115.866 75.8899 115.481 76.9983 115.096C78.1973 114.688 79.3963 114.28 80.5953 113.895C81.7943 113.51 82.9933 113.102 84.1923 112.739C85.3912 112.377 86.6128 111.992 87.8118 111.629C87.9702 111.584 88.1285 111.674 88.1738 111.833C88.219 111.969 88.1512 112.128 88.0154 112.173C86.8617 112.671 85.6853 113.147 84.509 113.623C83.3326 114.099 82.1562 114.552 80.9799 114.982C79.8035 115.413 78.6272 115.889 77.4508 116.319C76.3649 116.727 75.2564 117.112 74.1706 117.52C74.2837 118.109 74.3742 118.675 74.4647 119.264C74.5778 120.057 74.6456 120.828 74.6909 121.621C74.7361 122.414 74.7587 123.184 74.7587 123.977C74.7587 124.498 74.7361 125.042 74.6909 125.563C75.7767 125.155 76.8626 124.747 77.9485 124.362C79.2832 123.886 80.6179 123.388 81.9526 122.912C82.111 122.867 82.292 122.867 82.4277 122.935C83.5588 123.411 84.7126 123.909 85.8663 124.385C85.8211 124.181 85.7758 123.977 85.7306 123.773C85.6175 123.229 85.5496 122.686 85.5043 122.142C85.4591 121.598 85.4139 121.054 85.4139 120.511C85.4139 120.057 85.4365 119.627 85.5043 119.174C85.3007 118.993 85.2781 118.698 85.4591 118.494C85.527 118.426 85.5948 118.381 85.6853 118.358L87.3594 117.814C87.9249 117.633 88.4679 117.475 89.0334 117.293C89.2144 117.248 89.3954 117.339 89.4633 117.52C89.5311 117.701 89.4406 117.905 89.2597 117.973C88.7167 118.2 88.1738 118.426 87.6308 118.63L87.1784 118.811C87.4951 118.925 87.8118 119.038 88.1285 119.174L90.2324 119.989C91.635 120.556 93.015 121.1 94.4175 121.689C95.8201 122.255 97.2001 122.821 98.58 123.411C99.8921 123.954 101.182 124.521 102.494 125.064C103.625 124.657 104.779 124.271 105.932 123.886C107.154 123.456 108.398 123.048 109.62 122.64C110.841 122.232 112.086 121.825 113.33 121.439C114.574 121.054 115.818 120.646 117.062 120.284C117.221 120.239 117.379 120.307 117.424 120.465C117.47 120.624 117.402 120.782 117.243 120.828C116.044 121.326 114.823 121.802 113.624 122.278C112.425 122.754 111.203 123.229 109.982 123.682C108.76 124.158 107.561 124.611 106.34 125.042C105.231 125.45 104.1 125.88 102.991 126.288C103.105 126.718 103.195 127.172 103.263 127.602C103.376 128.236 103.444 128.871 103.489 129.505C103.489 129.55 103.489 129.573 103.489 129.618C103.059 129.732 102.607 129.845 102.154 129.936C102.154 129.822 102.132 129.732 102.109 129.641C102.041 129.007 101.996 128.372 101.996 127.738C101.996 127.285 101.996 126.832 102.041 126.356C100.707 125.812 99.3718 125.246 98.0371 124.679C96.6571 124.09 95.2772 123.524 93.8972 122.912C92.5173 122.323 91.1373 121.711 89.7573 121.122L87.6987 120.216L86.4997 119.672C86.5676 119.921 86.6128 120.171 86.6581 120.42C86.7486 120.964 86.8164 121.507 86.8617 122.051C86.9069 122.595 86.9069 123.139 86.9069 123.682C86.9069 124.045 86.8617 124.43 86.8391 124.793C87.9928 125.291 89.1692 125.789 90.3229 126.311C91.635 126.877 92.9471 127.466 94.2366 128.055C95.526 128.644 96.8381 129.233 98.1276 129.868C98.286 129.958 98.3764 130.14 98.3086 130.321C98.2407 130.502 98.0371 130.593 97.8561 130.547C96.4988 130.072 95.1867 129.528 93.852 129.029C92.5173 128.531 91.1825 127.987 89.8704 127.466C88.5357 126.922 87.2236 126.401 85.8889 125.857C84.6447 125.359 83.4005 124.838 82.1789 124.317C80.9346 124.77 79.6678 125.2 78.4009 125.654C77.0662 126.129 75.7089 126.582 74.3742 127.036L70.3248 128.395L68.2888 129.052L67.2481 129.392L70.0081 130.638L72.8811 131.952C72.1346 131.884 71.388 131.793 70.6867 131.703L69.7366 131.295L66.8183 130.072C66.8409 130.185 66.8862 130.321 66.9088 130.434C66.954 130.638 66.9993 130.865 67.0219 131.091C66.5695 131 66.117 130.91 65.6646 130.797C65.6646 130.706 65.6646 130.615 65.6646 130.547C65.6872 130.208 65.7098 129.89 65.8003 129.573C65.7777 129.55 65.7777 129.528 65.7551 129.505C65.6646 129.301 65.7777 129.075 65.9813 128.984H66.0039L67.9947 128.191L69.9854 127.421L73.9443 125.925C73.8086 125.314 73.7181 124.725 73.6276 124.113C73.5145 123.32 73.424 122.55 73.3788 121.757C73.3335 120.964 73.2883 120.193 73.2883 119.4C73.2883 118.811 73.2883 118.2 73.3335 117.588C72.1572 117.089 70.9808 116.591 69.8045 116.092C68.5828 115.571 67.3612 115.05 66.1623 114.507L64.3299 113.691L62.4974 112.875C61.2985 112.309 60.0769 111.765 58.9005 111.176C58.6517 111.085 58.5838 110.904 58.6516 110.746Z" fill="#F04E23"/>
<path d="M93.4218 130.411L94.6886 130.955L92.7205 131.657C91.4763 131.816 90.232 131.929 88.9652 132.043L88.8068 132.065L93.4218 130.411Z" fill="#F04E23"/>
<path d="M53.7876 124.181C53.8329 124.566 53.9686 124.951 54.1948 125.268C54.3984 125.608 54.6473 125.903 54.9414 126.175C55.5069 126.718 56.1404 127.171 56.819 127.579C58.1764 128.372 59.6016 129.007 61.0947 129.505C64.0582 130.502 67.1348 131.204 70.2341 131.612C73.3333 132.043 76.4552 132.269 79.5997 132.314C82.7216 132.36 85.8661 132.269 88.988 131.997C92.1099 131.725 95.2091 131.34 98.3084 130.774C99.8467 130.502 101.385 130.162 102.901 129.8C104.416 129.437 105.932 129.007 107.425 128.553C110.411 127.602 113.352 126.469 116.09 124.951C117.469 124.203 118.782 123.32 119.981 122.323C120.591 121.824 121.134 121.258 121.609 120.646C121.836 120.329 122.039 119.989 122.198 119.627C122.356 119.264 122.424 118.879 122.401 118.494C122.379 118.109 122.062 117.837 121.677 117.86C121.293 117.882 121.021 118.199 121.044 118.585V118.63C121.044 118.811 120.999 118.97 120.931 119.128C120.818 119.378 120.659 119.627 120.501 119.853C120.071 120.397 119.596 120.873 119.076 121.326C117.945 122.255 116.723 123.093 115.411 123.796C114.755 124.158 114.099 124.498 113.397 124.815L112.357 125.291L111.294 125.744C109.891 126.31 108.443 126.832 106.973 127.285C105.502 127.761 104.032 128.146 102.539 128.508C101.046 128.871 99.53 129.188 98.0143 129.46C94.9829 130.026 91.9063 130.411 88.8296 130.683C85.753 130.955 82.6537 131.068 79.5771 131C76.5005 130.955 73.4238 130.729 70.3698 130.321C67.3384 129.913 64.3749 129.233 61.4792 128.259C60.0766 127.783 58.7193 127.171 57.4525 126.424C56.8643 126.084 56.3213 125.676 55.801 125.2C55.5974 124.996 55.4165 124.792 55.2581 124.543C55.145 124.385 55.0771 124.226 55.0545 124.045C55.0319 123.682 54.7152 123.41 54.3532 123.433C54.0365 123.501 53.765 123.818 53.7876 124.181Z" fill="#10294C"/>
<path d="M72.202 145.433C71.9306 144.866 71.5234 144.39 71.0483 143.983C71.7496 143.869 72.564 143.461 73.4236 143.008C74.6905 142.351 76.0026 141.672 77.4504 141.717C78.6946 141.74 79.8936 142.442 81.0474 143.122C82.1332 143.756 83.2643 144.413 84.2597 144.368C85.0741 144.322 86.0243 143.665 86.997 142.963C88.1734 142.125 89.3724 141.264 90.775 141.105C92.2002 140.947 93.5801 141.536 94.9148 142.102C96.0233 142.578 97.0866 143.031 97.8784 142.895C98.8738 142.736 99.8239 141.853 100.774 141.015C101.769 140.131 102.787 139.179 104.009 138.907C105.412 138.59 106.927 138.998 108.239 139.383C109.393 139.723 110.479 140.018 111.248 139.791C112.266 139.474 113.103 138.432 113.918 137.412C114.732 136.393 115.546 135.373 116.655 134.897C118.012 134.308 119.596 134.444 120.976 134.535C122.152 134.625 123.261 134.716 123.894 134.331C124.98 133.696 125.545 132.337 126.066 131.023C126.337 130.321 126.654 129.641 127.039 128.984C126.858 130.887 126.586 132.768 126.224 134.625C125.84 135.124 125.364 135.554 124.799 135.894C123.668 136.551 122.22 136.438 120.817 136.347C119.596 136.257 118.306 136.166 117.356 136.574C116.678 136.868 116.021 137.684 115.343 138.545C114.415 139.723 113.329 141.037 111.814 141.513C110.547 141.921 109.122 141.513 107.764 141.128C106.588 140.788 105.389 140.448 104.439 140.675C103.67 140.856 102.878 141.581 102.018 142.351C100.932 143.325 99.7108 144.436 98.1951 144.685C96.8604 144.911 95.5256 144.322 94.2136 143.779C93.1051 143.303 91.9513 142.804 91.0012 142.918C90.051 143.031 89.0557 143.733 88.0829 144.436C86.9292 145.274 85.7302 146.135 84.3728 146.18C84.305 146.18 84.2371 146.18 84.1919 146.18C82.7214 146.18 81.3641 145.387 80.1651 144.685C79.1697 144.096 78.2422 143.552 77.4504 143.552C76.4776 143.529 75.3692 144.096 74.3059 144.662C73.6725 145.002 72.9938 145.319 72.3151 145.568C72.2247 145.501 72.2247 145.455 72.202 145.433Z" fill="#10294C"/>
<path d="M71.4331 150.802C71.8176 150.394 72.1117 149.919 72.3379 149.398C72.7225 149.216 73.1071 149.035 73.5143 148.831C74.7585 148.197 76.048 147.517 77.428 147.562C78.6269 147.585 79.7807 148.265 80.9118 148.922C82.0429 149.579 83.1967 150.259 84.2373 150.191C85.1196 150.145 86.0923 149.466 87.1103 148.741C88.2414 147.925 89.4404 147.087 90.7978 146.928C92.1551 146.769 93.5124 147.359 94.8019 147.902C95.933 148.401 97.0189 148.854 97.9012 148.718C98.9644 148.537 99.9598 147.653 100.91 146.769C101.86 145.886 102.878 144.98 104.032 144.708C105.389 144.39 106.792 144.798 108.149 145.183C109.348 145.523 110.457 145.841 111.271 145.591C112.357 145.251 113.216 144.187 114.054 143.144C114.845 142.17 115.637 141.151 116.7 140.72C118.012 140.154 119.551 140.267 120.908 140.38C122.13 140.471 123.261 140.562 123.962 140.154C124.392 139.882 124.776 139.519 125.071 139.089C124.822 139.905 124.55 140.72 124.234 141.536C123.238 141.921 122.062 141.83 120.795 141.74C119.551 141.649 118.239 141.536 117.221 141.966C116.497 142.283 115.818 143.099 115.117 144.005C114.212 145.138 113.149 146.452 111.678 146.905C110.479 147.291 109.099 146.905 107.765 146.52C106.566 146.18 105.344 145.841 104.326 146.067C103.512 146.248 102.674 146.996 101.815 147.789C100.706 148.786 99.5752 149.828 98.1048 150.077C96.8379 150.281 95.5258 149.715 94.259 149.171C93.1279 148.673 91.9515 148.174 90.9335 148.287C89.9155 148.401 88.8975 149.126 87.9021 149.851C86.771 150.666 85.5946 151.505 84.3052 151.573H84.1242C82.7216 151.573 81.4547 150.825 80.2331 150.1C79.2151 149.511 78.265 148.944 77.428 148.922C76.3873 148.899 75.2562 149.488 74.1704 150.055C73.1523 150.576 72.0891 151.119 71.0259 151.21C71.1616 151.074 71.2973 150.938 71.4331 150.802Z" fill="white"/>
<path d="M69.8043 156.512C69.8721 156.24 69.9174 155.968 69.9174 155.696C69.94 155.379 69.9174 155.062 69.8721 154.745C70.0757 154.835 70.2793 154.88 70.5055 154.903C71.2973 154.994 72.3153 154.473 73.3786 153.906C74.6454 153.249 75.9802 152.569 77.4054 152.615C78.6496 152.637 79.8486 153.34 81.0023 154.02C82.0882 154.654 83.2193 155.311 84.2147 155.266C85.0291 155.22 85.9792 154.563 86.952 153.861C88.1283 153.023 89.3273 152.162 90.7299 152.003C92.1551 151.844 93.5351 152.434 94.8472 153C95.9557 153.476 97.0189 153.929 97.8107 153.793C98.8061 153.634 99.7562 152.751 100.706 151.912C101.702 151.006 102.72 150.077 103.941 149.805C105.344 149.488 106.86 149.896 108.172 150.281C109.325 150.621 110.411 150.916 111.18 150.689C112.198 150.372 113.036 149.33 113.85 148.31C114.664 147.291 115.479 146.271 116.587 145.795C117.945 145.206 119.528 145.342 120.908 145.433C121.451 145.478 121.994 145.523 122.469 145.501C122.175 146.112 121.836 146.701 121.496 147.291L120.795 147.245C119.573 147.155 118.284 147.064 117.334 147.472C116.655 147.766 115.999 148.582 115.32 149.443C114.393 150.621 113.307 151.935 111.791 152.411C110.524 152.819 109.099 152.411 107.742 152.026C106.566 151.686 105.367 151.346 104.416 151.573C103.647 151.754 102.855 152.479 101.996 153.249C100.91 154.223 99.6883 155.334 98.1726 155.583C96.8379 155.809 95.5032 155.22 94.1911 154.677C93.0826 154.201 91.9289 153.702 90.9787 153.816C90.0286 153.929 89.0332 154.631 88.0605 155.334C86.9067 156.172 85.7077 157.01 84.3504 157.078H84.1694C82.699 157.078 81.3416 156.285 80.1427 155.583C79.1473 154.994 78.2198 154.45 77.428 154.45C76.4552 154.427 75.3467 154.994 74.2835 155.537C73.0166 156.195 71.7045 156.874 70.3698 156.716C70.1888 156.693 69.9852 156.67 69.8043 156.625C69.7816 156.58 69.8043 156.534 69.8043 156.512Z" fill="#10294C"/>
<path d="M178.211 77.3495L97.7213 106.305C96.8616 106.599 96.9974 107.369 97.2914 108.208C97.5855 109.046 97.9475 109.658 98.7845 109.386L179.818 81.9488C181.085 81.5183 181.152 80.6574 180.723 79.3659C180.293 78.0745 179.524 76.8737 178.257 77.3042L178.211 77.3495Z" fill="#F04E23"/>
<path d="M106.431 85.2793L123.058 92.2349L122.922 92.3028L124.053 103.337L107.969 109.069L91.3642 102.113L90.4366 91.0341L90.3688 91.0114L106.431 85.2793Z" fill="#FDB813"/>
<path d="M93.0159 97.5591C93.9208 98.1028 94.8483 98.5786 95.7985 99.0091C96.7486 99.4396 97.6987 99.87 98.6715 100.278C99.6443 100.686 100.617 101.048 101.59 101.388C102.563 101.728 103.581 102.068 104.599 102.317C104.757 102.362 104.915 102.272 104.961 102.113C105.006 101.977 104.938 101.841 104.825 101.773C103.92 101.229 102.992 100.754 102.042 100.301C101.092 99.8474 100.165 99.4169 99.1918 98.9864C98.2417 98.5786 97.2689 98.1935 96.2735 97.8309C95.2782 97.4684 94.3054 97.1286 93.2874 96.8567C93.0838 96.8114 92.9028 96.9247 92.8349 97.1286C92.8123 97.3099 92.8802 97.4911 93.0159 97.5591Z" fill="#F04E23"/>
<path d="M93.6043 101.116C93.8984 101.388 94.2377 101.615 94.5771 101.796C94.9164 101.977 95.2557 102.158 95.6177 102.294C95.9797 102.43 96.3416 102.566 96.7262 102.657C97.1108 102.747 97.518 102.815 97.9252 102.838C98.1061 102.838 98.2419 102.702 98.2419 102.543C98.2419 102.453 98.1966 102.385 98.1514 102.317C97.8573 102.045 97.5406 101.796 97.2013 101.592C96.8619 101.388 96.5226 101.207 96.1606 101.048C95.7987 100.89 95.4367 100.754 95.0748 100.64C94.6902 100.527 94.3056 100.459 93.8984 100.436C93.6948 100.436 93.5138 100.595 93.4912 100.799C93.4912 100.912 93.5364 101.025 93.6043 101.116Z" fill="#F04E23"/>
<path d="M92.1332 91.7815C92.201 91.6003 92.4046 91.487 92.5856 91.555C93.8298 91.9854 95.0514 92.4612 96.2957 92.9144C97.5173 93.3902 98.7389 93.8659 99.9605 94.3417C101.182 94.8402 102.404 95.3386 103.603 95.8144L106.996 97.2418C108.127 96.8566 109.236 96.4488 110.367 96.0636C111.566 95.6558 112.787 95.248 113.986 94.8402C115.208 94.4324 116.407 94.0472 117.629 93.662C118.85 93.2769 120.072 92.8917 121.293 92.5519C121.452 92.5065 121.61 92.5972 121.655 92.7558C121.701 92.8917 121.633 93.0276 121.497 93.0956C120.321 93.5941 119.144 94.0698 117.968 94.5456C116.791 95.0214 115.593 95.4746 114.394 95.9277C113.195 96.3808 112.018 96.8339 110.819 97.2871C109.733 97.6949 108.625 98.1027 107.516 98.4879C107.629 99.009 107.743 99.5301 107.81 100.029C107.924 100.754 107.991 101.456 108.059 102.181C108.127 102.906 108.15 103.631 108.15 104.356C108.172 105.081 108.127 105.829 108.037 106.554C108.014 106.712 107.878 106.825 107.72 106.825C107.607 106.803 107.494 106.735 107.471 106.622C107.267 105.919 107.109 105.217 106.996 104.492C106.86 103.767 106.77 103.065 106.702 102.339C106.634 101.614 106.589 100.889 106.566 100.164C106.544 99.6207 106.566 99.0769 106.589 98.5332L103.082 97.0605C101.883 96.5394 100.662 96.0183 99.4628 95.4972C98.2638 94.9535 97.0648 94.4324 95.8658 93.8886C94.6669 93.3448 93.4679 92.7784 92.2915 92.212C92.1558 92.144 92.0653 91.9628 92.1332 91.7815Z" fill="#F04E23"/>
<path d="M109.825 102.747C110.729 102.272 111.657 101.864 112.607 101.479C113.557 101.093 114.485 100.731 115.458 100.391C116.43 100.051 117.38 99.7567 118.353 99.4622C119.326 99.1676 120.321 98.9184 121.317 98.7145C121.475 98.6918 121.633 98.7825 121.656 98.9411C121.679 99.077 121.611 99.1903 121.498 99.2583C121.068 99.4848 120.615 99.7114 120.163 99.9153C120.208 100.074 120.253 100.255 120.299 100.414C120.367 100.708 120.457 101.003 120.502 101.32C120.57 101.615 120.638 101.909 120.706 102.226C120.774 102.521 120.819 102.815 120.887 103.133C120.887 103.178 120.887 103.223 120.887 103.268C120.887 103.608 120.593 103.858 120.276 103.858H120.231L119.122 103.812L118.014 103.744C117.652 103.722 117.267 103.699 116.905 103.676C116.543 103.654 116.159 103.631 115.797 103.586C115.05 103.518 114.326 103.427 113.58 103.336C112.992 103.246 112.381 103.155 111.793 103.042C111.227 103.201 110.662 103.336 110.073 103.45C109.892 103.518 109.689 103.427 109.621 103.223C109.531 103.019 109.621 102.815 109.825 102.747ZM115.887 102.204C116.249 102.226 116.634 102.249 116.996 102.272C117.358 102.294 117.742 102.317 118.104 102.362L119.213 102.453L119.597 102.498C119.597 102.453 119.597 102.408 119.575 102.362C119.552 102.068 119.53 101.75 119.507 101.456C119.484 101.161 119.484 100.844 119.462 100.55C119.462 100.459 119.462 100.346 119.462 100.255C119.213 100.368 118.964 100.482 118.693 100.595C117.765 101.003 116.815 101.365 115.865 101.705C115.412 101.864 114.937 102.045 114.462 102.204C114.96 102.181 115.412 102.181 115.887 102.204Z" fill="#F04E23"/>
<path d="M110.775 93.5716L117.199 91.3059L118.489 91.8497L112.041 94.1153L110.775 93.5716Z" fill="#10294C"/>
<path d="M108.806 94.2738L110.073 94.8176L106.77 95.9731L105.503 95.4293L108.806 94.2738Z" fill="#10294C"/>
<path d="M110.797 91.3965L114.372 90.1277L115.661 90.6714L112.064 91.9176L110.797 91.3965Z" fill="#10294C"/>
<path d="M108.829 92.0762L110.096 92.6199L103.942 94.795L102.676 94.2512L108.829 92.0762Z" fill="#10294C"/>
<path d="M103.92 91.6004L111.498 88.9269L112.765 89.448L105.187 92.1215L103.92 91.6004Z" fill="#10294C"/>
<path d="M103.241 92.8238L101.069 93.5715L99.7797 93.0504L101.951 92.28L103.241 92.8238Z" fill="#10294C"/>
<path d="M101.024 88.2699L103.535 88.3832L95.459 91.2152L94.1695 90.6941L101.024 88.2699Z" fill="#10294C"/>
<path d="M104.124 89.3347L106.476 88.4965L108.987 88.6097L105.413 89.8558L104.124 89.3347Z" fill="#10294C"/>
<path d="M102.178 90.0144L103.445 90.5582L98.2419 92.3933L96.9524 91.8496L102.178 90.0144Z" fill="#10294C"/>
<path d="M179.093 86.6158L94.3501 84.7353C93.4452 84.7127 93.1737 85.5283 93.1511 86.4346C93.1285 87.3408 93.3547 87.9526 94.237 87.9979L178.935 91.487C180.292 91.5549 180.654 90.5127 180.722 89.1533C180.79 87.794 180.496 86.6611 179.139 86.5932L179.093 86.6158Z" fill="#F04E23"/>
<path d="M150.612 134.082C137.31 131.068 132.22 118.766 132.22 118.766L144.323 107.8C144.323 107.8 151.133 119.287 162.082 122.98L150.612 134.082Z" fill="#FDB813"/>
<path d="M150.25 130.185C150.59 130.185 150.884 129.935 150.929 129.573C151.291 126.514 153.169 123.206 153.191 123.161C153.372 122.844 153.259 122.413 152.942 122.232C152.829 122.164 152.671 122.142 152.535 122.142C148.757 122.459 143.735 121.303 142.038 120.873C142.536 118.154 143.577 115.571 145.07 113.26C145.296 112.966 145.251 112.535 144.934 112.309C144.64 112.082 144.21 112.127 143.984 112.445C143.984 112.467 143.961 112.467 143.961 112.49C143.848 112.648 141.269 116.387 140.591 121.303C140.545 121.643 140.749 121.96 141.088 122.051C141.337 122.119 146.789 123.637 151.449 123.569C150.816 124.883 149.843 127.171 149.594 129.414C149.549 129.799 149.821 130.139 150.205 130.162L150.25 130.185Z" fill="#F04E23"/>
<path d="M139.105 125.353C136.83 124.044 135.834 121.505 136.88 119.682C137.926 117.859 140.618 117.443 142.893 118.753C145.167 120.062 146.164 122.601 145.118 124.424C144.072 126.246 141.38 126.662 139.105 125.353Z" fill="white"/>
<path d="M151.719 124.838C150.342 124.246 149.608 122.871 150.081 121.767C150.554 120.663 152.054 120.248 153.432 120.84C154.81 121.432 155.544 122.807 155.071 123.911C154.598 125.015 153.097 125.43 151.719 124.838Z" fill="#00ACDC"/>
<path d="M143.648 114.09C142.822 113.505 142.533 112.492 143.002 111.828C143.471 111.164 144.521 111.101 145.347 111.687C146.173 112.272 146.462 113.285 145.993 113.949C145.524 114.613 144.474 114.676 143.648 114.09Z" fill="#10294C"/>
<path d="M149.853 130.925C148.878 130.653 148.264 129.798 148.481 129.014C148.699 128.23 149.666 127.815 150.641 128.087C151.616 128.359 152.23 129.214 152.012 129.998C151.794 130.782 150.827 131.197 149.853 130.925Z" fill="#10294C"/>
<path d="M140.505 122.726C139.574 122.187 139.164 121.154 139.589 120.417C140.014 119.68 141.112 119.519 142.043 120.057C142.973 120.595 143.383 121.629 142.959 122.366C142.534 123.102 141.435 123.264 140.505 122.726Z" fill="#F04E23"/>
<path d="M143.283 90.8755C143.691 91.0114 144.12 91.102 144.55 91.1474C144.98 91.2153 145.387 91.238 145.817 91.2606C146.247 91.2833 146.654 91.2833 147.084 91.2606C147.514 91.238 147.944 91.1927 148.373 91.102C148.6 91.0567 148.758 90.8302 148.69 90.6036C148.668 90.445 148.554 90.3317 148.396 90.2864C147.989 90.1505 147.559 90.0598 147.129 90.0145C146.699 89.9692 146.292 89.9239 145.862 89.9012C145.433 89.8786 145.025 89.9012 144.596 89.9239C144.166 89.9465 143.736 89.9919 143.306 90.1051C143.08 90.1505 142.944 90.377 143.012 90.6036C143.057 90.7169 143.148 90.8302 143.283 90.8755Z" fill="#10294C"/>
<path d="M132.899 82.7191C133.442 81.8582 134.279 81.4051 135.161 80.9519C140.319 78.3011 146.201 77.4628 151.879 78.5503C153.915 78.9355 155.861 79.6379 157.716 80.5668C158.621 81.0199 159.48 81.541 160.295 82.1074C160.838 82.4926 161.607 82.3566 161.992 81.8129C162.059 81.7223 162.127 81.609 162.15 81.4957C162.308 81.0199 162.421 80.5441 162.489 80.0683C162.896 77.2363 161.697 74.5628 159.888 72.4557C157.987 70.258 155.476 68.6268 152.852 67.4486C150.16 66.2478 147.31 65.4549 144.391 65.0244C143.079 64.8205 140.206 64.5259 138.872 64.4353C138.758 60.8782 138.419 59.0204 137.152 55.1461C137.899 55.1461 140.342 55.1461 141.089 55.1688C143.871 55.2367 146.654 55.5539 149.391 56.143C155.114 57.3438 160.679 59.6774 165.159 63.5064C169.412 67.1314 172.488 72.1839 172.896 77.848C173.325 83.4215 171.063 88.7911 167.466 92.9599C167.059 93.4357 166.787 94.0248 166.72 94.6365C166.607 95.4974 166.403 96.3357 166.064 97.1287C166.041 97.174 166.041 97.1967 166.018 97.242C165.905 97.5365 165.769 97.8311 165.588 98.1029V98.1256C165.136 98.828 164.616 99.4623 164.028 100.051C161.969 102.113 159.39 103.563 156.562 104.22C155.861 104.379 155.16 104.469 154.436 104.515C154.345 104.515 154.255 104.515 154.142 104.515H154.028C153.802 104.515 153.599 104.515 153.372 104.515H153.237L152.83 104.492C152.513 104.515 152.173 104.492 151.857 104.424C148.509 104.152 146.201 103.133 145.432 100.233C142.921 99.6209 140.998 97.5818 141.066 95.0217L142.989 94.3646C143.781 94.0927 144.55 93.7982 145.161 93.5263C145.274 93.4584 145.387 93.413 145.5 93.3451C145.907 93.1638 146.292 92.9826 146.676 92.824C147.966 92.2576 149.233 91.6911 150.477 91.0794C150.748 90.9435 150.997 90.8075 151.269 90.6716C152.354 90.0372 152.4 88.0888 150.793 87.7036C148.735 87.2278 146.654 87.0012 144.55 87.0692C143.102 87.0919 141.631 87.2278 140.206 87.477C139.528 87.5903 138.849 87.7036 138.17 87.8395C137.876 87.9075 137.582 87.9755 137.288 88.0208C137.22 88.0208 137.039 88.0887 136.949 88.1114C134.98 88.7684 132.809 87.4091 132.379 85.4153C132.221 84.509 132.379 83.5348 132.899 82.7191Z" fill="#10294C"/>
<path d="M134.71 84.4865C135.57 86.231 139.212 85.2341 138.103 82.8099C136.972 80.4083 133.737 82.5153 134.71 84.4865Z" fill="#00ACDC"/>
<path d="M147.016 83.0137C147.106 82.6738 147.152 82.3113 147.152 81.9715C147.152 81.6316 147.129 81.2691 147.061 80.9293C146.993 80.5895 146.88 80.2496 146.744 79.9098C146.609 79.5699 146.382 79.2527 146.134 79.0035C145.975 78.8222 145.704 78.8222 145.523 79.0035C145.432 79.0941 145.387 79.2301 145.387 79.366V79.4113C145.41 79.7285 145.478 80.023 145.523 80.3176C145.568 80.6121 145.636 80.9293 145.704 81.2238C145.772 81.541 145.839 81.8356 145.907 82.1301C145.975 82.4473 146.088 82.7645 146.201 83.059L146.224 83.0817C146.315 83.2856 146.563 83.3989 146.767 83.3082C146.88 83.2403 146.971 83.127 147.016 83.0137Z" fill="#00ACDC"/>
<path d="M143.917 82.0622C144.007 81.881 144.075 81.6997 144.098 81.4958C144.12 81.3146 144.12 81.1107 144.075 80.9294C144.03 80.7481 143.962 80.5669 143.872 80.3856C143.781 80.2044 143.623 80.0458 143.442 79.9099C143.238 79.7739 142.944 79.8192 142.808 80.0231C142.808 80.0231 142.808 80.0458 142.786 80.0458C142.763 80.0911 142.74 80.1364 142.718 80.1817L142.695 80.2724C142.65 80.431 142.65 80.5669 142.65 80.7255C142.65 80.8614 142.673 81.02 142.695 81.156C142.718 81.3146 142.763 81.4505 142.831 81.5864C142.899 81.745 142.989 81.9036 143.08 82.0169L143.125 82.0849C143.283 82.2661 143.577 82.2888 143.758 82.1302C143.849 82.1529 143.894 82.1075 143.917 82.0622Z" fill="#00ACDC"/>
<path d="M147.537 95.6787C147.604 95.5201 147.627 95.3616 147.604 95.203C147.604 95.067 147.582 94.9311 147.537 94.7951C147.491 94.6592 147.423 94.5233 147.356 94.41C147.265 94.274 147.152 94.1608 147.016 94.0701L146.994 94.0475C146.745 93.8889 146.428 93.9568 146.27 94.2061C146.247 94.2287 146.247 94.274 146.224 94.2967C146.179 94.4553 146.134 94.6139 146.157 94.7725C146.157 94.9084 146.202 95.067 146.247 95.203C146.292 95.3389 146.36 95.4748 146.451 95.5881C146.541 95.7241 146.654 95.8373 146.79 95.928C147.016 96.0639 147.333 95.9959 147.469 95.7694C147.491 95.7467 147.491 95.7241 147.514 95.6787H147.537Z" fill="#00ACDC"/>
<path d="M145.885 98.6241C145.862 98.3749 145.817 98.1483 145.726 97.9217C145.659 97.6952 145.591 97.4913 145.523 97.2647C145.455 97.0608 145.387 96.8569 145.297 96.653C145.206 96.4491 145.116 96.2225 145.025 96.0186L145.002 95.9733C144.889 95.7694 144.618 95.6787 144.414 95.792C144.324 95.8373 144.256 95.928 144.211 96.0186C144.098 96.2905 144.052 96.585 144.075 96.9022C144.098 97.1967 144.143 97.4686 144.256 97.7405C144.346 98.0124 144.482 98.2616 144.641 98.4882C144.799 98.7147 145.002 98.9186 145.251 99.0999C145.432 99.2358 145.704 99.1679 145.839 98.9866C145.885 98.896 145.907 98.8054 145.907 98.7147L145.885 98.6241Z" fill="#00ACDC"/>
<path d="M149.731 102.861C149.776 102.702 149.776 102.566 149.753 102.408C149.731 102.272 149.708 102.136 149.663 102.023C149.618 101.909 149.55 101.796 149.482 101.683C149.391 101.569 149.301 101.456 149.188 101.388L149.12 101.343C148.894 101.184 148.6 101.252 148.441 101.479C148.419 101.501 148.396 101.524 148.396 101.569C148.328 101.728 148.305 101.909 148.305 102.091C148.328 102.249 148.351 102.408 148.419 102.544C148.486 102.68 148.554 102.816 148.667 102.929C148.781 103.065 148.916 103.155 149.075 103.246C149.324 103.359 149.595 103.269 149.731 103.019C149.753 102.997 149.753 102.974 149.753 102.929L149.731 102.861Z" fill="#00ACDC"/>
<path d="M146.609 100.346C147.31 100.459 148.012 100.505 148.736 100.482C149.437 100.459 150.138 100.369 150.839 100.233C151.541 100.097 152.219 99.8702 152.898 99.5983C153.577 99.3038 154.188 98.9187 154.753 98.4655C154.934 98.3069 154.934 98.0577 154.776 97.8764C154.663 97.7405 154.482 97.6952 154.323 97.7632H154.301C153.69 98.0124 153.102 98.2163 152.468 98.4202C152.152 98.4882 151.857 98.6015 151.518 98.6694C151.201 98.7374 150.885 98.828 150.568 98.896C149.935 99.0319 149.278 99.1452 148.622 99.2585L146.654 99.5757H146.632C146.405 99.621 146.27 99.8249 146.315 100.029C146.338 100.187 146.473 100.323 146.609 100.346Z" fill="#00ACDC"/>
<path d="M0.0835694 92.3255C0.196681 90.8982 0.355035 89.4935 0.60388 88.0888C0.852726 86.6161 1.19206 85.1434 1.62188 83.716C1.82549 83.0363 2.00646 82.3566 2.25531 81.6769C2.50415 80.9973 2.77563 80.3176 3.02447 79.6605C3.27332 78.9808 3.61264 78.3011 3.90673 77.5988V77.8027C5.44505 74.2456 13.4081 77.1909 12.6616 81.0199C12.5711 81.2238 12.4806 81.4277 12.3901 81.6543C11.2816 84.1239 10.4898 86.752 10.0374 89.4481C9.81117 90.8982 9.67542 92.3482 9.63018 93.8209C9.60756 95.2709 9.67543 96.7209 9.83379 98.1483C10.1957 101.071 10.9423 103.926 12.0282 106.667C13.1366 109.409 14.5392 112.037 16.2359 114.461C19.6066 119.264 23.7918 123.433 28.5877 126.831C30.9857 128.531 33.4967 130.094 36.0983 131.476C38.2474 132.609 40.4644 133.628 42.7266 134.535C43.2017 134.739 43.722 134.512 43.9256 134.036C43.9483 133.991 43.9483 133.946 43.9709 133.9C44.4459 132.065 45.8033 128.304 49.4229 126.696C49.6491 128.304 49.8979 130.66 49.8979 130.66C50.192 131.725 50.8481 132.654 51.7303 133.311L51.7756 133.334L53.065 133.946C55.8023 134.965 58.6528 135.645 61.5484 136.007C62.9736 136.189 64.4215 136.325 65.8467 136.438C66.5253 136.483 67.204 136.528 67.8827 136.551C68.1994 136.574 68.5387 136.596 68.8554 136.596C69.059 136.596 69.896 136.596 70.077 136.596C72.0452 136.642 73.6287 138.273 73.5835 140.244C73.5609 141.513 72.8596 142.668 71.7737 143.28C71.3439 143.507 70.8688 143.643 70.3711 143.733C69.9187 143.847 69.4662 143.937 69.0138 144.05C70.8688 144.707 71.8416 146.769 71.1629 148.627C70.8914 149.375 70.3937 150.009 69.7151 150.44C69.2853 150.689 68.8328 150.87 68.3577 150.983C67.7922 151.165 67.2266 151.323 66.6158 151.459C66.1634 151.572 65.7335 151.663 65.2811 151.754C67.2492 151.912 68.7197 153.634 68.5613 155.605C68.4708 156.851 67.7243 157.962 66.6158 158.528C66.1634 158.732 65.6883 158.868 65.2132 158.936C64.625 159.049 64.0369 159.162 63.4487 159.253C61.7973 159.502 60.1458 159.616 58.4718 159.616C56.8204 159.593 55.1915 159.253 53.6532 158.619L53.608 158.596C53.5627 158.573 53.5175 158.573 53.4949 158.551C48.7894 156.512 46.0748 151.89 44.6495 147.925C44.3102 146.973 43.5637 146.225 42.5909 145.863C41.5955 145.5 40.3965 145.047 39.7405 144.775C37.1616 143.711 34.6505 142.532 32.1394 141.264C29.5378 139.904 27.0267 138.364 24.6062 136.71C19.7424 133.402 15.331 129.437 11.5531 124.928C7.70728 120.397 4.69852 115.231 2.63989 109.68C1.62188 106.894 0.875351 103.994 0.422904 101.048C0.0157025 98.1936 -0.0974092 95.2482 0.0835694 92.3255Z" fill="#10294C"/>
<path d="M71.1632 140.607C71.0275 138.681 67.2948 138.205 67.4079 140.856C67.521 143.529 71.3215 142.804 71.1632 140.607Z" fill="#00ACDC"/>
<path d="M68.63 148.061C68.4943 146.135 64.7616 145.659 64.8747 148.31C64.9652 150.983 68.7658 150.258 68.63 148.061Z" fill="#00ACDC"/>
<path d="M66.2998 155.741C66.164 153.815 62.4314 153.34 62.5445 155.99C62.635 158.664 66.4355 157.939 66.2998 155.741Z" fill="#00ACDC"/>
<path d="M64.2409 151.618C63.2455 151.618 62.2275 151.64 61.2321 151.64C60.2368 151.64 59.2414 151.595 58.246 151.55C57.2506 151.504 56.2779 151.391 55.2825 151.278C54.2871 151.142 53.337 150.938 52.3416 150.757H52.3189C52.1606 150.734 52.0022 150.825 51.9796 150.983C51.957 151.119 52.0249 151.232 52.138 151.3C53.0655 151.799 54.0382 152.184 55.0563 152.433C56.0743 152.682 57.0923 152.864 58.1555 152.932C59.1961 153 60.2368 153 61.2774 152.909C62.318 152.841 63.336 152.637 64.354 152.365C64.535 152.32 64.6481 152.116 64.6029 151.912C64.5576 151.731 64.4219 151.64 64.2409 151.618Z" fill="#00ACDC"/>
<path d="M67.9507 143.937C66.7291 143.892 65.5075 143.869 64.3085 143.846C63.6977 143.824 63.0869 143.824 62.4761 143.801L61.5712 143.778C61.2771 143.778 60.9604 143.733 60.6663 143.733C59.4673 143.665 58.2683 143.575 57.0693 143.416C55.893 143.257 54.7166 143.008 53.5855 142.668C53.4271 142.623 53.2688 142.714 53.2235 142.85C53.1783 142.985 53.2235 143.121 53.3366 143.189C54.4225 143.824 55.6215 144.3 56.8657 144.549C58.0873 144.821 59.3316 145.002 60.5758 145.093C61.2092 145.138 61.82 145.161 62.4534 145.161C63.0642 145.183 63.6977 145.161 64.3085 145.115C65.5527 145.047 66.7969 144.911 68.0185 144.662C68.2221 144.617 68.3352 144.435 68.3126 144.232C68.2674 144.05 68.1316 143.937 67.9507 143.937Z" fill="#00ACDC"/>
<path d="M59.1506 138.318C58.9018 138.613 58.6982 138.953 58.585 139.315C58.4719 139.678 58.3814 140.04 58.3814 140.425C58.3588 140.81 58.4041 141.196 58.5172 141.558C58.6303 141.921 58.8113 142.26 59.0601 142.555C59.2185 142.736 59.4899 142.759 59.6709 142.6C59.7614 142.51 59.8293 142.396 59.8293 142.26V142.192C59.8293 141.875 59.7614 141.581 59.7614 141.286C59.7388 140.992 59.7388 140.72 59.7614 140.425C59.7614 140.131 59.784 139.859 59.8067 139.542C59.8293 139.224 59.8745 138.93 59.8745 138.635V138.567C59.8745 138.341 59.6935 138.16 59.4673 138.16C59.3542 138.16 59.2411 138.205 59.1506 138.318Z" fill="#00ACDC"/>
<path d="M56.0743 139.27C55.9386 139.406 55.8481 139.564 55.8029 139.723C55.7576 139.882 55.7124 140.04 55.7124 140.199C55.7124 140.357 55.735 140.516 55.7802 140.674C55.8255 140.856 55.916 140.992 56.0291 141.128C56.2327 141.332 56.5494 141.332 56.753 141.15C56.7756 141.128 56.7982 141.105 56.8209 141.06L56.8435 141.014C56.934 140.878 56.9792 140.742 57.0245 140.607C57.0471 140.471 57.0697 140.357 57.0697 140.221C57.0697 140.085 57.0471 139.949 57.0245 139.836C57.0018 139.7 56.934 139.564 56.8435 139.428L56.753 139.315C56.5946 139.111 56.3232 139.089 56.1196 139.224C56.1196 139.247 56.097 139.27 56.0743 139.27Z" fill="#00ACDC"/>
<path d="M57.7706 147.585C57.5218 147.925 57.3634 148.287 57.2503 148.695C57.1372 149.08 57.1146 149.488 57.1146 149.896C57.1372 150.304 57.2051 150.711 57.3634 151.097C57.4992 151.482 57.7254 151.844 58.0195 152.139C58.1778 152.297 58.4493 152.32 58.6077 152.161C58.6982 152.071 58.7434 151.935 58.7434 151.799V151.754C58.6982 151.414 58.6077 151.097 58.585 150.779C58.5398 150.462 58.5172 150.168 58.4946 149.85C58.4719 149.533 58.4719 149.216 58.4719 148.899C58.4719 148.582 58.4946 148.219 58.4946 147.902V147.834C58.4946 147.607 58.3136 147.426 58.0874 147.426C57.9516 147.426 57.8385 147.494 57.7706 147.585Z" fill="#00ACDC"/>
<path d="M55.5314 154.246C55.373 154.563 55.2826 154.903 55.2373 155.265C55.1921 155.605 55.1694 155.968 55.1694 156.307C55.1921 156.67 55.2373 157.01 55.3278 157.372C55.4183 157.735 55.5766 158.075 55.7802 158.369C55.916 158.573 56.1874 158.596 56.391 158.46C56.5042 158.392 56.572 158.256 56.572 158.143V158.097C56.5946 157.78 56.5946 157.486 56.572 157.168C56.5494 156.851 56.572 156.557 56.5494 156.262C56.5268 155.968 56.5268 155.65 56.4815 155.333C56.4589 155.016 56.4137 154.699 56.3232 154.382V154.359C56.2779 154.132 56.0517 153.996 55.8255 154.064C55.6897 154.064 55.5766 154.132 55.5314 154.246Z" fill="#00ACDC"/>
<path d="M57.952 155.832C57.8389 155.99 57.7484 156.172 57.6805 156.353C57.6353 156.534 57.6126 156.715 57.6126 156.919C57.6126 157.123 57.6579 157.304 57.7258 157.486C57.7936 157.69 57.9067 157.871 58.0651 158.007C58.2461 158.188 58.5402 158.165 58.6985 157.984C58.6985 157.984 58.6985 157.984 58.7211 157.961C58.7664 157.916 58.789 157.871 58.8116 157.825L58.8569 157.735C58.9247 157.599 58.9474 157.44 58.97 157.282C58.9926 157.146 58.9926 156.987 58.9926 156.851C58.9926 156.693 58.97 156.534 58.9247 156.398C58.8795 156.24 58.8343 156.081 58.7438 155.922L58.6985 155.854C58.5628 155.65 58.2913 155.582 58.0651 155.718C58.0198 155.741 57.9746 155.786 57.952 155.832Z" fill="#00ACDC"/>
<path d="M128.917 158.075C117.38 154.201 112.29 143.733 112.29 143.733L128.329 138.16C128.329 138.16 133.419 148.627 144.934 152.501L128.917 158.075Z" fill="#FDB813"/>
<path d="M126.022 155.379C124.823 154.767 123.647 154.042 122.561 153.226L127.493 151.504C128.624 152.297 129.846 153 131.09 153.589L126.022 155.379Z" fill="#F04E23"/>
<path d="M127.651 139.904C127.651 139.904 129.166 142.532 130.772 144.3L126.339 145.84C125.162 144.481 124.122 143.008 123.239 141.445L127.651 139.904Z" fill="#00ACDC"/>
<path d="M128.94 156.67C128.488 156.511 128.058 156.33 127.628 156.149L139.98 151.844C140.365 152.048 140.749 152.229 141.134 152.433L128.94 156.67Z" fill="#10294C"/>
<path d="M121.769 141.966C121.905 142.192 122.063 142.464 122.267 142.781L114.983 145.319C114.779 145.024 114.621 144.753 114.462 144.526L121.769 141.966Z" fill="#10294C"/>
<path d="M129.189 150.915L135.343 148.786C135.637 149.012 135.931 149.239 136.225 149.465L130.162 151.572C129.823 151.346 129.506 151.142 129.189 150.915Z" fill="#10294C"/>
<path d="M124.235 145.591C124.438 145.84 124.642 146.089 124.846 146.361L117.72 148.853C117.493 148.604 117.267 148.355 117.064 148.106L124.235 145.591Z" fill="#10294C"/>
<path d="M135.682 151.028L137.515 150.394C137.831 150.621 138.171 150.825 138.51 151.028L136.723 151.64C136.384 151.436 136.022 151.232 135.682 151.028Z" fill="#10294C"/>
<path d="M134.981 152.252L132.696 153.045C132.311 152.864 131.949 152.66 131.587 152.456L133.985 151.618C134.302 151.821 134.641 152.048 134.981 152.252Z" fill="#10294C"/>
<path d="M126.249 149.624L133.42 147.132C133.669 147.358 133.94 147.607 134.212 147.834L127.108 150.304C126.814 150.077 126.52 149.85 126.249 149.624Z" fill="#10294C"/>
<path d="M125.524 150.847L121.362 152.297C121.068 152.071 120.796 151.844 120.525 151.618L124.687 150.168C124.981 150.394 125.253 150.621 125.524 150.847Z" fill="#10294C"/>
<path d="M118.466 146.407L116.317 147.154C116.114 146.882 115.91 146.633 115.729 146.384L117.878 145.636C118.059 145.885 118.263 146.157 118.466 146.407Z" fill="#10294C"/>
<path d="M119.28 145.138L122.968 143.846C123.149 144.096 123.33 144.367 123.533 144.639L119.914 145.908C119.688 145.659 119.484 145.387 119.28 145.138Z" fill="#10294C"/>
<path d="M126.95 146.973C127.176 147.222 127.379 147.471 127.628 147.721L119.416 150.575C119.168 150.326 118.919 150.077 118.67 149.85L126.95 146.973Z" fill="#10294C"/>
<path d="M128.397 146.475L131.655 145.342C131.881 145.591 132.107 145.84 132.356 146.089L129.098 147.222C128.85 146.95 128.623 146.701 128.397 146.475Z" fill="#10294C"/>
</svg>
